<?xml version="1.0" encoding="UTF-8" standalone="no"?>
<!DOCTYPE svg PUBLIC "-//W3C//DTD SVG 1.1//EN"
 "http://www.w3.org/Graphics/SVG/1.1/DTD/svg11.dtd">
<!-- Generated by graphviz version 9.0.0 (20230911.1827)
 -->
<!-- Title: G Pages: 1 -->
<svg width="1790pt" height="1426pt"
 viewBox="0.00 0.00 1790.20 1425.70" xmlns="http://www.w3.org/2000/svg" xmlns:xlink="http://www.w3.org/1999/xlink">
<g id="graph0" class="graph" transform="scale(1 1) rotate(0) translate(21.6 1404.1)">
<title>G</title>
<polygon fill="#111111" stroke="none" points="-21.6,21.6 -21.6,-1404.1 1768.6,-1404.1 1768.6,21.6 -21.6,21.6"/>
<!-- _open_sources/dynatree.js -->
<g id="node1" class="node">
<title>_open_sources/dynatree.js</title>
<path fill="none" stroke="#cfffac" d="M1221.21,-1253.5C1221.21,-1253.5 1049.04,-1253.5 1049.04,-1253.5 1044.96,-1253.5 1040.88,-1249.42 1040.88,-1245.33 1040.88,-1245.33 1040.88,-1237.17 1040.88,-1237.17 1040.88,-1233.08 1044.96,-1229 1049.04,-1229 1049.04,-1229 1221.21,-1229 1221.21,-1229 1225.29,-1229 1229.38,-1233.08 1229.38,-1237.17 1229.38,-1237.17 1229.38,-1245.33 1229.38,-1245.33 1229.38,-1249.42 1225.29,-1253.5 1221.21,-1253.5"/>
<text text-anchor="middle" x="1135.12" y="-1236.2" font-family="Arial" font-size="14.00" fill="#cfffac">_open_sources/dynatree.js</text>
</g>
<!-- approvalBox.js -->
<g id="node2" class="node">
<title>approvalBox.js</title>
<path fill="none" stroke="#c6c5fe" d="M100.83,-781.5C100.83,-781.5 8.17,-781.5 8.17,-781.5 4.08,-781.5 0,-777.42 0,-773.33 0,-773.33 0,-765.17 0,-765.17 0,-761.08 4.08,-757 8.17,-757 8.17,-757 100.83,-757 100.83,-757 104.92,-757 109,-761.08 109,-765.17 109,-765.17 109,-773.33 109,-773.33 109,-777.42 104.92,-781.5 100.83,-781.5"/>
<text text-anchor="middle" x="54.5" y="-764.2" font-family="Arial" font-size="14.00" fill="#c6c5fe">approvalBox.js</text>
</g>
<!-- approvalBox.scss -->
<g id="node3" class="node">
<title>approvalBox.scss</title>
<path fill="none" stroke="#c6c5fe" d="M296.08,-132.5C296.08,-132.5 183.92,-132.5 183.92,-132.5 179.83,-132.5 175.75,-128.42 175.75,-124.33 175.75,-124.33 175.75,-116.17 175.75,-116.17 175.75,-112.08 179.83,-108 183.92,-108 183.92,-108 296.08,-108 296.08,-108 300.17,-108 304.25,-112.08 304.25,-116.17 304.25,-116.17 304.25,-124.33 304.25,-124.33 304.25,-128.42 300.17,-132.5 296.08,-132.5"/>
<text text-anchor="middle" x="240" y="-115.2" font-family="Arial" font-size="14.00" fill="#c6c5fe">approvalBox.scss</text>
</g>
<!-- approvalBox.js&#45;&gt;approvalBox.scss -->
<g id="edge1" class="edge">
<title>approvalBox.js&#45;&gt;approvalBox.scss</title>
<path fill="none" stroke="#757575" d="M58.85,-756.8C70.5,-713.46 110.51,-565.24 145,-443.25 176.77,-330.89 216.25,-197.03 232.02,-143.78"/>
<polygon fill="#757575" stroke="#757575" points="235.34,-144.88 234.83,-134.3 228.63,-142.9 235.34,-144.88"/>
</g>
<!-- approvalBox/FeDocInfo.js -->
<g id="node4" class="node">
<title>approvalBox/FeDocInfo.js</title>
<path fill="none" stroke="#c6c5fe" d="M583.96,-823.5C583.96,-823.5 419.29,-823.5 419.29,-823.5 415.21,-823.5 411.12,-819.42 411.12,-815.33 411.12,-815.33 411.12,-807.17 411.12,-807.17 411.12,-803.08 415.21,-799 419.29,-799 419.29,-799 583.96,-799 583.96,-799 588.04,-799 592.12,-803.08 592.12,-807.17 592.12,-807.17 592.12,-815.33 592.12,-815.33 592.12,-819.42 588.04,-823.5 583.96,-823.5"/>
<text text-anchor="middle" x="501.62" y="-806.2" font-family="Arial" font-size="14.00" fill="#c6c5fe">approvalBox/FeDocInfo.js</text>
</g>
<!-- approvalBox.js&#45;&gt;approvalBox/FeDocInfo.js -->
<g id="edge2" class="edge">
<title>approvalBox.js&#45;&gt;approvalBox/FeDocInfo.js</title>
<path fill="none" stroke="#757575" d="M109.19,-774.32C180.93,-781.08 309.44,-793.21 399.59,-801.72"/>
<polygon fill="#757575" stroke="#757575" points="399.15,-805.19 409.43,-802.65 399.81,-798.22 399.15,-805.19"/>
</g>
<!-- approvalBox/FeFlow.js -->
<g id="node5" class="node">
<title>approvalBox/FeFlow.js</title>
<path fill="none" stroke="#c6c5fe" d="M880.46,-1253.5C880.46,-1253.5 736.79,-1253.5 736.79,-1253.5 732.71,-1253.5 728.62,-1249.42 728.62,-1245.33 728.62,-1245.33 728.62,-1237.17 728.62,-1237.17 728.62,-1233.08 732.71,-1229 736.79,-1229 736.79,-1229 880.46,-1229 880.46,-1229 884.54,-1229 888.62,-1233.08 888.62,-1237.17 888.62,-1237.17 888.62,-1245.33 888.62,-1245.33 888.62,-1249.42 884.54,-1253.5 880.46,-1253.5"/>
<text text-anchor="middle" x="808.62" y="-1236.2" font-family="Arial" font-size="14.00" fill="#c6c5fe">approvalBox/FeFlow.js</text>
</g>
<!-- approvalBox.js&#45;&gt;approvalBox/FeFlow.js -->
<g id="edge3" class="edge">
<title>approvalBox.js&#45;&gt;approvalBox/FeFlow.js</title>
<path fill="none" stroke="#757575" d="M56.8,-781.75C61.57,-822.43 81.34,-953.22 145,-1036.25 218.35,-1131.92 257.99,-1144.27 371,-1186.25 485.19,-1228.66 626.49,-1239.58 716.85,-1241.78"/>
<polygon fill="#757575" stroke="#757575" points="716.58,-1245.28 726.65,-1241.99 716.72,-1238.28 716.58,-1245.28"/>
</g>
<!-- approvalBox/FeRecipient.js -->
<g id="node6" class="node">
<title>approvalBox/FeRecipient.js</title>
<path fill="none" stroke="#c6c5fe" d="M326.83,-740.5C326.83,-740.5 153.17,-740.5 153.17,-740.5 149.08,-740.5 145,-736.42 145,-732.33 145,-732.33 145,-724.17 145,-724.17 145,-720.08 149.08,-716 153.17,-716 153.17,-716 326.83,-716 326.83,-716 330.92,-716 335,-720.08 335,-724.17 335,-724.17 335,-732.33 335,-732.33 335,-736.42 330.92,-740.5 326.83,-740.5"/>
<text text-anchor="middle" x="240" y="-723.2" font-family="Arial" font-size="14.00" fill="#c6c5fe">approvalBox/FeRecipient.js</text>
</g>
<!-- approvalBox.js&#45;&gt;approvalBox/FeRecipient.js -->
<g id="edge4" class="edge">
<title>approvalBox.js&#45;&gt;approvalBox/FeRecipient.js</title>
<path fill="none" stroke="#757575" d="M109.07,-757.28C128.44,-752.95 150.57,-748.01 171.01,-743.44"/>
<polygon fill="#757575" stroke="#757575" points="171.69,-746.88 180.69,-741.28 170.17,-740.04 171.69,-746.88"/>
</g>
<!-- approvalBox/FeSender.js -->
<g id="node7" class="node">
<title>approvalBox/FeSender.js</title>
<path fill="none" stroke="#c6c5fe" d="M888.71,-1203.5C888.71,-1203.5 728.54,-1203.5 728.54,-1203.5 724.46,-1203.5 720.38,-1199.42 720.38,-1195.33 720.38,-1195.33 720.38,-1187.17 720.38,-1187.17 720.38,-1183.08 724.46,-1179 728.54,-1179 728.54,-1179 888.71,-1179 888.71,-1179 892.79,-1179 896.88,-1183.08 896.88,-1187.17 896.88,-1187.17 896.88,-1195.33 896.88,-1195.33 896.88,-1199.42 892.79,-1203.5 888.71,-1203.5"/>
<text text-anchor="middle" x="808.62" y="-1186.2" font-family="Arial" font-size="14.00" fill="#c6c5fe">approvalBox/FeSender.js</text>
</g>
<!-- approvalBox.js&#45;&gt;approvalBox/FeSender.js -->
<g id="edge5" class="edge">
<title>approvalBox.js&#45;&gt;approvalBox/FeSender.js</title>
<path fill="none" stroke="#757575" d="M61.53,-781.89C88.42,-836.71 203.53,-1055.08 371,-1144.25 476.3,-1200.32 616,-1205.41 708.7,-1200.89"/>
<polygon fill="#757575" stroke="#757575" points="708.74,-1204.39 718.54,-1200.36 708.37,-1197.4 708.74,-1204.39"/>
</g>
<!-- utils/TabUI.js -->
<g id="node8" class="node">
<title>utils/TabUI.js</title>
<path fill="none" stroke="#c6c5fe" d="M542.33,-239.5C542.33,-239.5 460.92,-239.5 460.92,-239.5 456.83,-239.5 452.75,-235.42 452.75,-231.33 452.75,-231.33 452.75,-223.17 452.75,-223.17 452.75,-219.08 456.83,-215 460.92,-215 460.92,-215 542.33,-215 542.33,-215 546.42,-215 550.5,-219.08 550.5,-223.17 550.5,-223.17 550.5,-231.33 550.5,-231.33 550.5,-235.42 546.42,-239.5 542.33,-239.5"/>
<text text-anchor="middle" x="501.62" y="-222.2" font-family="Arial" font-size="14.00" fill="#c6c5fe">utils/TabUI.js</text>
</g>
<!-- approvalBox.js&#45;&gt;utils/TabUI.js -->
<g id="edge6" class="edge">
<title>approvalBox.js&#45;&gt;utils/TabUI.js</title>
<path fill="none" stroke="#757575" d="M59.08,-756.58C78.24,-691.22 175.2,-390.09 371,-253.25 391.29,-239.07 417.49,-232.22 441.02,-229.05"/>
<polygon fill="#757575" stroke="#757575" points="441.27,-232.54 450.82,-227.94 440.49,-225.59 441.27,-232.54"/>
</g>
<!-- css/button.scss -->
<g id="node9" class="node">
<title>css/button.scss</title>
<path fill="none" stroke="#cfffac" d="M550.96,-24.5C550.96,-24.5 452.29,-24.5 452.29,-24.5 448.21,-24.5 444.12,-20.42 444.12,-16.33 444.12,-16.33 444.12,-8.17 444.12,-8.17 444.12,-4.08 448.21,0 452.29,0 452.29,0 550.96,0 550.96,0 555.04,0 559.12,-4.08 559.12,-8.17 559.12,-8.17 559.12,-16.33 559.12,-16.33 559.12,-20.42 555.04,-24.5 550.96,-24.5"/>
<text text-anchor="middle" x="501.62" y="-7.2" font-family="Arial" font-size="14.00" fill="#cfffac">css/button.scss</text>
</g>
<!-- approvalBox.scss&#45;&gt;css/button.scss -->
<g id="edge7" class="edge">
<title>approvalBox.scss&#45;&gt;css/button.scss</title>
<path fill="none" stroke="#757575" d="M255.45,-107.7C278.3,-88.57 324.94,-52.45 371,-34.25 390.26,-26.64 412.14,-21.66 432.37,-18.41"/>
<polygon fill="#757575" stroke="#757575" points="432.86,-21.87 442.24,-16.95 431.83,-14.95 432.86,-21.87"/>
</g>
<!-- css/initiate.scss -->
<g id="node10" class="node">
<title>css/initiate.scss</title>
<path fill="none" stroke="#cfffac" d="M551.33,-196.5C551.33,-196.5 451.92,-196.5 451.92,-196.5 447.83,-196.5 443.75,-192.42 443.75,-188.33 443.75,-188.33 443.75,-180.17 443.75,-180.17 443.75,-176.08 447.83,-172 451.92,-172 451.92,-172 551.33,-172 551.33,-172 555.42,-172 559.5,-176.08 559.5,-180.17 559.5,-180.17 559.5,-188.33 559.5,-188.33 559.5,-192.42 555.42,-196.5 551.33,-196.5"/>
<text text-anchor="middle" x="501.62" y="-179.2" font-family="Arial" font-size="14.00" fill="#cfffac">css/initiate.scss</text>
</g>
<!-- approvalBox.scss&#45;&gt;css/initiate.scss -->
<g id="edge8" class="edge">
<title>approvalBox.scss&#45;&gt;css/initiate.scss</title>
<path fill="none" stroke="#757575" d="M275.64,-132.95C301.61,-142.1 338.17,-154.21 371,-162.25 390.74,-167.09 412.42,-171.22 432.31,-174.55"/>
<polygon fill="#757575" stroke="#757575" points="431.55,-177.97 441.98,-176.13 432.67,-171.07 431.55,-177.97"/>
</g>
<!-- css/modal.scss -->
<g id="node11" class="node">
<title>css/modal.scss</title>
<path fill="none" stroke="#cfffac" d="M550.96,-153.5C550.96,-153.5 452.29,-153.5 452.29,-153.5 448.21,-153.5 444.12,-149.42 444.12,-145.33 444.12,-145.33 444.12,-137.17 444.12,-137.17 444.12,-133.08 448.21,-129 452.29,-129 452.29,-129 550.96,-129 550.96,-129 555.04,-129 559.12,-133.08 559.12,-137.17 559.12,-137.17 559.12,-145.33 559.12,-145.33 559.12,-149.42 555.04,-153.5 550.96,-153.5"/>
<text text-anchor="middle" x="501.62" y="-136.2" font-family="Arial" font-size="14.00" fill="#cfffac">css/modal.scss</text>
</g>
<!-- approvalBox.scss&#45;&gt;css/modal.scss -->
<g id="edge9" class="edge">
<title>approvalBox.scss&#45;&gt;css/modal.scss</title>
<path fill="none" stroke="#757575" d="M304.51,-125.39C343.32,-128.53 392.92,-132.54 432.54,-135.74"/>
<polygon fill="#757575" stroke="#757575" points="432.2,-139.23 442.45,-136.54 432.76,-132.25 432.2,-139.23"/>
</g>
<!-- css/root.scss -->
<g id="node12" class="node">
<title>css/root.scss</title>
<path fill="none" stroke="#cfffac" d="M543.83,-110.5C543.83,-110.5 459.42,-110.5 459.42,-110.5 455.33,-110.5 451.25,-106.42 451.25,-102.33 451.25,-102.33 451.25,-94.17 451.25,-94.17 451.25,-90.08 455.33,-86 459.42,-86 459.42,-86 543.83,-86 543.83,-86 547.92,-86 552,-90.08 552,-94.17 552,-94.17 552,-102.33 552,-102.33 552,-106.42 547.92,-110.5 543.83,-110.5"/>
<text text-anchor="middle" x="501.62" y="-93.2" font-family="Arial" font-size="14.00" fill="#cfffac">css/root.scss</text>
</g>
<!-- approvalBox.scss&#45;&gt;css/root.scss -->
<g id="edge10" class="edge">
<title>approvalBox.scss&#45;&gt;css/root.scss</title>
<path fill="none" stroke="#757575" d="M304.51,-114.87C345.59,-111.39 398.77,-106.88 439.39,-103.44"/>
<polygon fill="#757575" stroke="#757575" points="439.59,-106.93 449.26,-102.6 439,-99.96 439.59,-106.93"/>
</g>
<!-- css/tree&#45;list.scss -->
<g id="node13" class="node">
<title>css/tree&#45;list.scss</title>
<path fill="none" stroke="#cfffac" d="M554.71,-67.5C554.71,-67.5 448.54,-67.5 448.54,-67.5 444.46,-67.5 440.38,-63.42 440.38,-59.33 440.38,-59.33 440.38,-51.17 440.38,-51.17 440.38,-47.08 444.46,-43 448.54,-43 448.54,-43 554.71,-43 554.71,-43 558.79,-43 562.88,-47.08 562.88,-51.17 562.88,-51.17 562.88,-59.33 562.88,-59.33 562.88,-63.42 558.79,-67.5 554.71,-67.5"/>
<text text-anchor="middle" x="501.62" y="-50.2" font-family="Arial" font-size="14.00" fill="#cfffac">css/tree&#45;list.scss</text>
</g>
<!-- approvalBox.scss&#45;&gt;css/tree&#45;list.scss -->
<g id="edge11" class="edge">
<title>approvalBox.scss&#45;&gt;css/tree&#45;list.scss</title>
<path fill="none" stroke="#757575" d="M274.8,-107.5C300.8,-98.09 337.78,-85.51 371,-77.25 389.52,-72.64 409.77,-68.7 428.65,-65.47"/>
<polygon fill="#757575" stroke="#757575" points="429.1,-68.95 438.4,-63.86 427.96,-62.04 429.1,-68.95"/>
</g>
<!-- approvalBox/FeDocInfo.scss -->
<g id="node14" class="node">
<title>approvalBox/FeDocInfo.scss</title>
<path fill="none" stroke="#cfffac" d="M900.71,-1096.5C900.71,-1096.5 716.54,-1096.5 716.54,-1096.5 712.46,-1096.5 708.38,-1092.42 708.38,-1088.33 708.38,-1088.33 708.38,-1080.17 708.38,-1080.17 708.38,-1076.08 712.46,-1072 716.54,-1072 716.54,-1072 900.71,-1072 900.71,-1072 904.79,-1072 908.88,-1076.08 908.88,-1080.17 908.88,-1080.17 908.88,-1088.33 908.88,-1088.33 908.88,-1092.42 904.79,-1096.5 900.71,-1096.5"/>
<text text-anchor="middle" x="808.62" y="-1079.2" font-family="Arial" font-size="14.00" fill="#cfffac">approvalBox/FeDocInfo.scss</text>
</g>
<!-- approvalBox/FeDocInfo.js&#45;&gt;approvalBox/FeDocInfo.scss -->
<g id="edge12" class="edge">
<title>approvalBox/FeDocInfo.js&#45;&gt;approvalBox/FeDocInfo.scss</title>
<path fill="none" stroke="#757575" d="M506.75,-823.83C521.2,-865.75 573.87,-1001.48 668.25,-1062.25 677.12,-1067.96 686.94,-1072.37 697.15,-1075.76"/>
<polygon fill="#757575" stroke="#757575" points="695.88,-1079.03 706.46,-1078.5 697.86,-1072.32 695.88,-1079.03"/>
</g>
<!-- approvalBox/docInfo/FeApprovalType.js -->
<g id="node15" class="node">
<title>approvalBox/docInfo/FeApprovalType.js</title>
<path fill="none" stroke="#c6c5fe" d="M935.96,-491.5C935.96,-491.5 681.29,-491.5 681.29,-491.5 677.21,-491.5 673.12,-487.42 673.12,-483.33 673.12,-483.33 673.12,-475.17 673.12,-475.17 673.12,-471.08 677.21,-467 681.29,-467 681.29,-467 935.96,-467 935.96,-467 940.04,-467 944.12,-471.08 944.12,-475.17 944.12,-475.17 944.12,-483.33 944.12,-483.33 944.12,-487.42 940.04,-491.5 935.96,-491.5"/>
<text text-anchor="middle" x="808.62" y="-474.2" font-family="Arial" font-size="14.00" fill="#c6c5fe">approvalBox/docInfo/FeApprovalType.js</text>
</g>
<!-- approvalBox/FeDocInfo.js&#45;&gt;approvalBox/docInfo/FeApprovalType.js -->
<g id="edge13" class="edge">
<title>approvalBox/FeDocInfo.js&#45;&gt;approvalBox/docInfo/FeApprovalType.js</title>
<path fill="none" stroke="#757575" d="M592.31,-811.22C607.34,-807.27 621.52,-800.46 632.25,-789.25 721.45,-696.06 578.52,-593.92 668.25,-501.25 669,-500.48 669.76,-499.73 670.53,-499"/>
<polygon fill="#757575" stroke="#757575" points="672.58,-501.84 678.18,-492.84 668.19,-496.39 672.58,-501.84"/>
</g>
<!-- approvalBox/docInfo/FeDocNumber.js -->
<g id="node16" class="node">
<title>approvalBox/docInfo/FeDocNumber.js</title>
<path fill="none" stroke="#c6c5fe" d="M929.96,-448.5C929.96,-448.5 687.29,-448.5 687.29,-448.5 683.21,-448.5 679.12,-444.42 679.12,-440.33 679.12,-440.33 679.12,-432.17 679.12,-432.17 679.12,-428.08 683.21,-424 687.29,-424 687.29,-424 929.96,-424 929.96,-424 934.04,-424 938.12,-428.08 938.12,-432.17 938.12,-432.17 938.12,-440.33 938.12,-440.33 938.12,-444.42 934.04,-448.5 929.96,-448.5"/>
<text text-anchor="middle" x="808.62" y="-431.2" font-family="Arial" font-size="14.00" fill="#c6c5fe">approvalBox/docInfo/FeDocNumber.js</text>
</g>
<!-- approvalBox/FeDocInfo.js&#45;&gt;approvalBox/docInfo/FeDocNumber.js -->
<g id="edge14" class="edge">
<title>approvalBox/FeDocInfo.js&#45;&gt;approvalBox/docInfo/FeDocNumber.js</title>
<path fill="none" stroke="#757575" d="M592.45,-811.36C607.47,-807.4 621.61,-800.55 632.25,-789.25 733.71,-681.53 566.17,-565.38 668.25,-458.25 668.99,-457.47 669.74,-456.72 670.51,-455.98"/>
<polygon fill="#757575" stroke="#757575" points="672.58,-458.82 678.11,-449.78 668.15,-453.39 672.58,-458.82"/>
</g>
<!-- approvalBox/docInfo/FeEnforceType.js -->
<g id="node17" class="node">
<title>approvalBox/docInfo/FeEnforceType.js</title>
<path fill="none" stroke="#c6c5fe" d="M932.96,-405.5C932.96,-405.5 684.29,-405.5 684.29,-405.5 680.21,-405.5 676.12,-401.42 676.12,-397.33 676.12,-397.33 676.12,-389.17 676.12,-389.17 676.12,-385.08 680.21,-381 684.29,-381 684.29,-381 932.96,-381 932.96,-381 937.04,-381 941.12,-385.08 941.12,-389.17 941.12,-389.17 941.12,-397.33 941.12,-397.33 941.12,-401.42 937.04,-405.5 932.96,-405.5"/>
<text text-anchor="middle" x="808.62" y="-388.2" font-family="Arial" font-size="14.00" fill="#c6c5fe">approvalBox/docInfo/FeEnforceType.js</text>
</g>
<!-- approvalBox/FeDocInfo.js&#45;&gt;approvalBox/docInfo/FeEnforceType.js -->
<g id="edge15" class="edge">
<title>approvalBox/FeDocInfo.js&#45;&gt;approvalBox/docInfo/FeEnforceType.js</title>
<path fill="none" stroke="#757575" d="M592.57,-811.47C607.58,-807.49 621.68,-800.61 632.25,-789.25 689.12,-728.12 611.03,-476.05 668.25,-415.25 668.86,-414.6 669.49,-413.96 670.12,-413.34"/>
<polygon fill="#757575" stroke="#757575" points="672.34,-416.05 677.77,-406.95 667.85,-410.67 672.34,-416.05"/>
</g>
<!-- approvalBox/docInfo/FeFlag.js -->
<g id="node18" class="node">
<title>approvalBox/docInfo/FeFlag.js</title>
<path fill="none" stroke="#c6c5fe" d="M905.58,-952.5C905.58,-952.5 711.67,-952.5 711.67,-952.5 707.58,-952.5 703.5,-948.42 703.5,-944.33 703.5,-944.33 703.5,-936.17 703.5,-936.17 703.5,-932.08 707.58,-928 711.67,-928 711.67,-928 905.58,-928 905.58,-928 909.67,-928 913.75,-932.08 913.75,-936.17 913.75,-936.17 913.75,-944.33 913.75,-944.33 913.75,-948.42 909.67,-952.5 905.58,-952.5"/>
<text text-anchor="middle" x="808.62" y="-935.2" font-family="Arial" font-size="14.00" fill="#c6c5fe">approvalBox/docInfo/FeFlag.js</text>
</g>
<!-- approvalBox/FeDocInfo.js&#45;&gt;approvalBox/docInfo/FeFlag.js -->
<g id="edge16" class="edge">
<title>approvalBox/FeDocInfo.js&#45;&gt;approvalBox/docInfo/FeFlag.js</title>
<path fill="none" stroke="#757575" d="M517.42,-823.93C545.04,-846.83 607.17,-894.91 668.25,-918.25 675.97,-921.2 684.07,-923.75 692.32,-925.97"/>
<polygon fill="#757575" stroke="#757575" points="691.22,-929.3 701.77,-928.31 692.91,-922.5 691.22,-929.3"/>
</g>
<!-- approvalBox/docInfo/FeFolder.js -->
<g id="node19" class="node">
<title>approvalBox/docInfo/FeFolder.js</title>
<path fill="none" stroke="#c6c5fe" d="M912.33,-1004.5C912.33,-1004.5 704.92,-1004.5 704.92,-1004.5 700.83,-1004.5 696.75,-1000.42 696.75,-996.33 696.75,-996.33 696.75,-988.17 696.75,-988.17 696.75,-984.08 700.83,-980 704.92,-980 704.92,-980 912.33,-980 912.33,-980 916.42,-980 920.5,-984.08 920.5,-988.17 920.5,-988.17 920.5,-996.33 920.5,-996.33 920.5,-1000.42 916.42,-1004.5 912.33,-1004.5"/>
<text text-anchor="middle" x="808.62" y="-987.2" font-family="Arial" font-size="14.00" fill="#c6c5fe">approvalBox/docInfo/FeFolder.js</text>
</g>
<!-- approvalBox/FeDocInfo.js&#45;&gt;approvalBox/docInfo/FeFolder.js -->
<g id="edge17" class="edge">
<title>approvalBox/FeDocInfo.js&#45;&gt;approvalBox/docInfo/FeFolder.js</title>
<path fill="none" stroke="#757575" d="M512.33,-823.65C535.77,-852.67 598.65,-925.24 668.25,-961.25 680.41,-967.54 693.81,-972.56 707.35,-976.56"/>
<polygon fill="#757575" stroke="#757575" points="706.19,-979.87 716.76,-979.16 708.05,-973.13 706.19,-979.87"/>
</g>
<!-- approvalBox/docInfo/FeKeepPeriod.js -->
<g id="node20" class="node">
<title>approvalBox/docInfo/FeKeepPeriod.js</title>
<path fill="none" stroke="#c6c5fe" d="M929.96,-909.5C929.96,-909.5 687.29,-909.5 687.29,-909.5 683.21,-909.5 679.12,-905.42 679.12,-901.33 679.12,-901.33 679.12,-893.17 679.12,-893.17 679.12,-889.08 683.21,-885 687.29,-885 687.29,-885 929.96,-885 929.96,-885 934.04,-885 938.12,-889.08 938.12,-893.17 938.12,-893.17 938.12,-901.33 938.12,-901.33 938.12,-905.42 934.04,-909.5 929.96,-909.5"/>
<text text-anchor="middle" x="808.62" y="-892.2" font-family="Arial" font-size="14.00" fill="#c6c5fe">approvalBox/docInfo/FeKeepPeriod.js</text>
</g>
<!-- approvalBox/FeDocInfo.js&#45;&gt;approvalBox/docInfo/FeKeepPeriod.js -->
<g id="edge18" class="edge">
<title>approvalBox/FeDocInfo.js&#45;&gt;approvalBox/docInfo/FeKeepPeriod.js</title>
<path fill="none" stroke="#757575" d="M530.15,-823.97C562.54,-838.44 618.24,-861.8 668.25,-875.25 678.07,-877.89 688.36,-880.25 698.72,-882.36"/>
<polygon fill="#757575" stroke="#757575" points="698,-885.78 708.49,-884.25 699.34,-878.91 698,-885.78"/>
</g>
<!-- approvalBox/docInfo/FePageCnt.js -->
<g id="node21" class="node">
<title>approvalBox/docInfo/FePageCnt.js</title>
<path fill="none" stroke="#c6c5fe" d="M919.46,-866.5C919.46,-866.5 697.79,-866.5 697.79,-866.5 693.71,-866.5 689.62,-862.42 689.62,-858.33 689.62,-858.33 689.62,-850.17 689.62,-850.17 689.62,-846.08 693.71,-842 697.79,-842 697.79,-842 919.46,-842 919.46,-842 923.54,-842 927.62,-846.08 927.62,-850.17 927.62,-850.17 927.62,-858.33 927.62,-858.33 927.62,-862.42 923.54,-866.5 919.46,-866.5"/>
<text text-anchor="middle" x="808.62" y="-849.2" font-family="Arial" font-size="14.00" fill="#c6c5fe">approvalBox/docInfo/FePageCnt.js</text>
</g>
<!-- approvalBox/FeDocInfo.js&#45;&gt;approvalBox/docInfo/FePageCnt.js -->
<g id="edge19" class="edge">
<title>approvalBox/FeDocInfo.js&#45;&gt;approvalBox/docInfo/FePageCnt.js</title>
<path fill="none" stroke="#757575" d="M592.49,-823.92C628.16,-828.95 669.36,-834.76 706.1,-839.94"/>
<polygon fill="#757575" stroke="#757575" points="705.46,-843.38 715.85,-841.31 706.44,-836.45 705.46,-843.38"/>
</g>
<!-- approvalBox/docInfo/FePublication.js -->
<g id="node22" class="node">
<title>approvalBox/docInfo/FePublication.js</title>
<path fill="none" stroke="#c6c5fe" d="M926.21,-1053.5C926.21,-1053.5 691.04,-1053.5 691.04,-1053.5 686.96,-1053.5 682.88,-1049.42 682.88,-1045.33 682.88,-1045.33 682.88,-1037.17 682.88,-1037.17 682.88,-1033.08 686.96,-1029 691.04,-1029 691.04,-1029 926.21,-1029 926.21,-1029 930.29,-1029 934.38,-1033.08 934.38,-1037.17 934.38,-1037.17 934.38,-1045.33 934.38,-1045.33 934.38,-1049.42 930.29,-1053.5 926.21,-1053.5"/>
<text text-anchor="middle" x="808.62" y="-1036.2" font-family="Arial" font-size="14.00" fill="#c6c5fe">approvalBox/docInfo/FePublication.js</text>
</g>
<!-- approvalBox/FeDocInfo.js&#45;&gt;approvalBox/docInfo/FePublication.js -->
<g id="edge20" class="edge">
<title>approvalBox/FeDocInfo.js&#45;&gt;approvalBox/docInfo/FePublication.js</title>
<path fill="none" stroke="#757575" d="M508.97,-823.98C527.75,-860.19 586.82,-964.31 668.25,-1013.25 675.76,-1017.76 683.87,-1021.56 692.27,-1024.76"/>
<polygon fill="#757575" stroke="#757575" points="691.01,-1028.03 701.6,-1028 693.3,-1021.42 691.01,-1028.03"/>
</g>
<!-- approvalBox/docInfo/FeSecurityLevel.js -->
<g id="node23" class="node">
<title>approvalBox/docInfo/FeSecurityLevel.js</title>
<path fill="none" stroke="#c6c5fe" d="M934.46,-823.5C934.46,-823.5 682.79,-823.5 682.79,-823.5 678.71,-823.5 674.62,-819.42 674.62,-815.33 674.62,-815.33 674.62,-807.17 674.62,-807.17 674.62,-803.08 678.71,-799 682.79,-799 682.79,-799 934.46,-799 934.46,-799 938.54,-799 942.62,-803.08 942.62,-807.17 942.62,-807.17 942.62,-815.33 942.62,-815.33 942.62,-819.42 938.54,-823.5 934.46,-823.5"/>
<text text-anchor="middle" x="808.62" y="-806.2" font-family="Arial" font-size="14.00" fill="#c6c5fe">approvalBox/docInfo/FeSecurityLevel.js</text>
</g>
<!-- approvalBox/FeDocInfo.js&#45;&gt;approvalBox/docInfo/FeSecurityLevel.js -->
<g id="edge21" class="edge">
<title>approvalBox/FeDocInfo.js&#45;&gt;approvalBox/docInfo/FeSecurityLevel.js</title>
<path fill="none" stroke="#757575" d="M592.49,-811.25C614.63,-811.25 638.91,-811.25 662.94,-811.25"/>
<polygon fill="#757575" stroke="#757575" points="662.81,-814.75 672.81,-811.25 662.81,-807.75 662.81,-814.75"/>
</g>
<!-- approvalBox/docInfo/FeSpecialDoc.js -->
<g id="node24" class="node">
<title>approvalBox/docInfo/FeSpecialDoc.js</title>
<path fill="none" stroke="#c6c5fe" d="M928.46,-780.5C928.46,-780.5 688.79,-780.5 688.79,-780.5 684.71,-780.5 680.62,-776.42 680.62,-772.33 680.62,-772.33 680.62,-764.17 680.62,-764.17 680.62,-760.08 684.71,-756 688.79,-756 688.79,-756 928.46,-756 928.46,-756 932.54,-756 936.62,-760.08 936.62,-764.17 936.62,-764.17 936.62,-772.33 936.62,-772.33 936.62,-776.42 932.54,-780.5 928.46,-780.5"/>
<text text-anchor="middle" x="808.62" y="-763.2" font-family="Arial" font-size="14.00" fill="#c6c5fe">approvalBox/docInfo/FeSpecialDoc.js</text>
</g>
<!-- approvalBox/FeDocInfo.js&#45;&gt;approvalBox/docInfo/FeSpecialDoc.js -->
<g id="edge22" class="edge">
<title>approvalBox/FeDocInfo.js&#45;&gt;approvalBox/docInfo/FeSpecialDoc.js</title>
<path fill="none" stroke="#757575" d="M592.49,-798.58C628.16,-793.55 669.36,-787.74 706.1,-782.56"/>
<polygon fill="#757575" stroke="#757575" points="706.44,-786.05 715.85,-781.19 705.46,-779.12 706.44,-786.05"/>
</g>
<!-- approvalBox/docInfo/FeSpecialList.js -->
<g id="node25" class="node">
<title>approvalBox/docInfo/FeSpecialList.js</title>
<path fill="none" stroke="#c6c5fe" d="M926.58,-700.5C926.58,-700.5 690.67,-700.5 690.67,-700.5 686.58,-700.5 682.5,-696.42 682.5,-692.33 682.5,-692.33 682.5,-684.17 682.5,-684.17 682.5,-680.08 686.58,-676 690.67,-676 690.67,-676 926.58,-676 926.58,-676 930.67,-676 934.75,-680.08 934.75,-684.17 934.75,-684.17 934.75,-692.33 934.75,-692.33 934.75,-696.42 930.67,-700.5 926.58,-700.5"/>
<text text-anchor="middle" x="808.62" y="-683.2" font-family="Arial" font-size="14.00" fill="#c6c5fe">approvalBox/docInfo/FeSpecialList.js</text>
</g>
<!-- approvalBox/FeDocInfo.js&#45;&gt;approvalBox/docInfo/FeSpecialList.js -->
<g id="edge23" class="edge">
<title>approvalBox/FeDocInfo.js&#45;&gt;approvalBox/docInfo/FeSpecialList.js</title>
<path fill="none" stroke="#757575" d="M592.59,-804.34C606.43,-800.95 620.13,-796.11 632.25,-789.25 653.64,-777.14 648.4,-761.76 668.25,-747.25 693.7,-728.64 725.9,-714.52 752.94,-704.76"/>
<polygon fill="#757575" stroke="#757575" points="754.08,-708.07 762.37,-701.48 751.77,-701.46 754.08,-708.07"/>
</g>
<!-- approvalBox/docInfo/FeTitle.js -->
<g id="node26" class="node">
<title>approvalBox/docInfo/FeTitle.js</title>
<path fill="none" stroke="#c6c5fe" d="M905.21,-620.5C905.21,-620.5 712.04,-620.5 712.04,-620.5 707.96,-620.5 703.88,-616.42 703.88,-612.33 703.88,-612.33 703.88,-604.17 703.88,-604.17 703.88,-600.08 707.96,-596 712.04,-596 712.04,-596 905.21,-596 905.21,-596 909.29,-596 913.38,-600.08 913.38,-604.17 913.38,-604.17 913.38,-612.33 913.38,-612.33 913.38,-616.42 909.29,-620.5 905.21,-620.5"/>
<text text-anchor="middle" x="808.62" y="-603.2" font-family="Arial" font-size="14.00" fill="#c6c5fe">approvalBox/docInfo/FeTitle.js</text>
</g>
<!-- approvalBox/FeDocInfo.js&#45;&gt;approvalBox/docInfo/FeTitle.js -->
<g id="edge24" class="edge">
<title>approvalBox/FeDocInfo.js&#45;&gt;approvalBox/docInfo/FeTitle.js</title>
<path fill="none" stroke="#757575" d="M592.56,-809.32C607.12,-805.46 621.07,-799.18 632.25,-789.25 674.53,-751.72 630.61,-709.43 668.25,-667.25 686.31,-647.01 712.47,-633.5 737.25,-624.59"/>
<polygon fill="#757575" stroke="#757575" points="738.34,-627.91 746.7,-621.41 736.11,-621.28 738.34,-627.91"/>
</g>
<!-- approvalBox/docInfo/FeViewRange.js -->
<g id="node27" class="node">
<title>approvalBox/docInfo/FeViewRange.js</title>
<path fill="none" stroke="#c6c5fe" d="M928.08,-577.5C928.08,-577.5 689.17,-577.5 689.17,-577.5 685.08,-577.5 681,-573.42 681,-569.33 681,-569.33 681,-561.17 681,-561.17 681,-557.08 685.08,-553 689.17,-553 689.17,-553 928.08,-553 928.08,-553 932.17,-553 936.25,-557.08 936.25,-561.17 936.25,-561.17 936.25,-569.33 936.25,-569.33 936.25,-573.42 932.17,-577.5 928.08,-577.5"/>
<text text-anchor="middle" x="808.62" y="-560.2" font-family="Arial" font-size="14.00" fill="#c6c5fe">approvalBox/docInfo/FeViewRange.js</text>
</g>
<!-- approvalBox/FeDocInfo.js&#45;&gt;approvalBox/docInfo/FeViewRange.js -->
<g id="edge25" class="edge">
<title>approvalBox/FeDocInfo.js&#45;&gt;approvalBox/docInfo/FeViewRange.js</title>
<path fill="none" stroke="#757575" d="M592.51,-810.59C607.34,-806.66 621.39,-800.02 632.25,-789.25 697,-725.03 603.13,-651.09 668.25,-587.25 669.31,-586.21 670.39,-585.21 671.5,-584.25"/>
<polygon fill="#757575" stroke="#757575" points="673.37,-587.22 679.29,-578.43 669.18,-581.61 673.37,-587.22"/>
</g>
<!-- approvalBox/docInfo/FeViewRestriction.js -->
<g id="node28" class="node">
<title>approvalBox/docInfo/FeViewRestriction.js</title>
<path fill="none" stroke="#c6c5fe" d="M940.83,-534.5C940.83,-534.5 676.42,-534.5 676.42,-534.5 672.33,-534.5 668.25,-530.42 668.25,-526.33 668.25,-526.33 668.25,-518.17 668.25,-518.17 668.25,-514.08 672.33,-510 676.42,-510 676.42,-510 940.83,-510 940.83,-510 944.92,-510 949,-514.08 949,-518.17 949,-518.17 949,-526.33 949,-526.33 949,-530.42 944.92,-534.5 940.83,-534.5"/>
<text text-anchor="middle" x="808.62" y="-517.2" font-family="Arial" font-size="14.00" fill="#c6c5fe">approvalBox/docInfo/FeViewRestriction.js</text>
</g>
<!-- approvalBox/FeDocInfo.js&#45;&gt;approvalBox/docInfo/FeViewRestriction.js -->
<g id="edge26" class="edge">
<title>approvalBox/FeDocInfo.js&#45;&gt;approvalBox/docInfo/FeViewRestriction.js</title>
<path fill="none" stroke="#757575" d="M592.44,-810.95C607.37,-807 621.48,-800.27 632.25,-789.25 709.2,-710.57 590.84,-622.49 668.25,-544.25 669,-543.49 669.77,-542.75 670.56,-542.02"/>
<polygon fill="#757575" stroke="#757575" points="672.59,-544.87 678.27,-535.93 668.25,-539.38 672.59,-544.87"/>
</g>
<!-- approvalBox/FeFlow.js&#45;&gt;_open_sources/dynatree.js -->
<g id="edge27" class="edge">
<title>approvalBox/FeFlow.js&#45;&gt;_open_sources/dynatree.js</title>
<path fill="none" stroke="#757575" d="M889.01,-1241.25C931.21,-1241.25 983.64,-1241.25 1029.17,-1241.25"/>
<polygon fill="#757575" stroke="#757575" points="1029.07,-1244.75 1039.07,-1241.25 1029.07,-1237.75 1029.07,-1244.75"/>
</g>
<!-- approvalBox/FeFlow.scss -->
<g id="node29" class="node">
<title>approvalBox/FeFlow.scss</title>
<path fill="none" stroke="#cfffac" d="M1216.71,-1382.5C1216.71,-1382.5 1053.54,-1382.5 1053.54,-1382.5 1049.46,-1382.5 1045.38,-1378.42 1045.38,-1374.33 1045.38,-1374.33 1045.38,-1366.17 1045.38,-1366.17 1045.38,-1362.08 1049.46,-1358 1053.54,-1358 1053.54,-1358 1216.71,-1358 1216.71,-1358 1220.79,-1358 1224.88,-1362.08 1224.88,-1366.17 1224.88,-1366.17 1224.88,-1374.33 1224.88,-1374.33 1224.88,-1378.42 1220.79,-1382.5 1216.71,-1382.5"/>
<text text-anchor="middle" x="1135.12" y="-1365.2" font-family="Arial" font-size="14.00" fill="#cfffac">approvalBox/FeFlow.scss</text>
</g>
<!-- approvalBox/FeFlow.js&#45;&gt;approvalBox/FeFlow.scss -->
<g id="edge28" class="edge">
<title>approvalBox/FeFlow.js&#45;&gt;approvalBox/FeFlow.scss</title>
<path fill="none" stroke="#757575" d="M825.41,-1253.96C854.85,-1276.92 920.94,-1325.07 985,-1348.25 1000.54,-1353.87 1017.5,-1358.06 1034.21,-1361.18"/>
<polygon fill="#757575" stroke="#757575" points="1033.21,-1364.56 1043.66,-1362.82 1034.41,-1357.66 1033.21,-1364.56"/>
</g>
<!-- approvalBox/flowInfo/FeParticipant.js -->
<g id="node30" class="node">
<title>approvalBox/flowInfo/FeParticipant.js</title>
<path fill="none" stroke="#c6c5fe" d="M1251.96,-1339.5C1251.96,-1339.5 1018.29,-1339.5 1018.29,-1339.5 1014.21,-1339.5 1010.12,-1335.42 1010.12,-1331.33 1010.12,-1331.33 1010.12,-1323.17 1010.12,-1323.17 1010.12,-1319.08 1014.21,-1315 1018.29,-1315 1018.29,-1315 1251.96,-1315 1251.96,-1315 1256.04,-1315 1260.12,-1319.08 1260.12,-1323.17 1260.12,-1323.17 1260.12,-1331.33 1260.12,-1331.33 1260.12,-1335.42 1256.04,-1339.5 1251.96,-1339.5"/>
<text text-anchor="middle" x="1135.12" y="-1322.2" font-family="Arial" font-size="14.00" fill="#c6c5fe">approvalBox/flowInfo/FeParticipant.js</text>
</g>
<!-- approvalBox/FeFlow.js&#45;&gt;approvalBox/flowInfo/FeParticipant.js -->
<g id="edge29" class="edge">
<title>approvalBox/FeFlow.js&#45;&gt;approvalBox/flowInfo/FeParticipant.js</title>
<path fill="none" stroke="#757575" d="M838.84,-1254C873.18,-1268.49 932.22,-1291.87 985,-1305.25 995.65,-1307.95 1006.83,-1310.36 1018.06,-1312.49"/>
<polygon fill="#757575" stroke="#757575" points="1017.34,-1315.92 1027.81,-1314.27 1018.6,-1309.03 1017.34,-1315.92"/>
</g>
<!-- utils/hoxUtils.js -->
<g id="node31" class="node">
<title>utils/hoxUtils.js</title>
<path fill="none" stroke="#c6c5fe" d="M1181.08,-706.5C1181.08,-706.5 1089.17,-706.5 1089.17,-706.5 1085.08,-706.5 1081,-702.42 1081,-698.33 1081,-698.33 1081,-690.17 1081,-690.17 1081,-686.08 1085.08,-682 1089.17,-682 1089.17,-682 1181.08,-682 1181.08,-682 1185.17,-682 1189.25,-686.08 1189.25,-690.17 1189.25,-690.17 1189.25,-698.33 1189.25,-698.33 1189.25,-702.42 1185.17,-706.5 1181.08,-706.5"/>
<text text-anchor="middle" x="1135.12" y="-689.2" font-family="Arial" font-size="14.00" fill="#c6c5fe">utils/hoxUtils.js</text>
</g>
<!-- approvalBox/FeFlow.js&#45;&gt;utils/hoxUtils.js -->
<g id="edge30" class="edge">
<title>approvalBox/FeFlow.js&#45;&gt;utils/hoxUtils.js</title>
<path fill="none" stroke="#757575" d="M888.77,-1241.99C911.33,-1238.1 933.86,-1229.54 949,-1212.25 1021.79,-1129.1 909.8,-797.23 985,-716.25 1006.08,-693.55 1039.55,-687.14 1069.45,-686.81"/>
<polygon fill="#757575" stroke="#757575" points="1069.14,-690.3 1079.18,-686.94 1069.23,-683.3 1069.14,-690.3"/>
</g>
<!-- approvalBox/FeRecipient.js&#45;&gt;_open_sources/dynatree.js -->
<g id="edge31" class="edge">
<title>approvalBox/FeRecipient.js&#45;&gt;_open_sources/dynatree.js</title>
<path fill="none" stroke="#757575" d="M250.98,-740.75C294.28,-794.1 472.54,-1004.54 668.25,-1105.25 782.13,-1163.85 842.03,-1099.81 949,-1170.25 971.57,-1185.11 961.85,-1205.31 985,-1219.25 998.57,-1227.42 1014.06,-1232.96 1029.81,-1236.65"/>
<polygon fill="#757575" stroke="#757575" points="1028.74,-1240 1039.25,-1238.61 1030.17,-1233.15 1028.74,-1240"/>
</g>
<!-- approvalBox/FeRecipient.js&#45;&gt;utils/TabUI.js -->
<g id="edge34" class="edge">
<title>approvalBox/FeRecipient.js&#45;&gt;utils/TabUI.js</title>
<path fill="none" stroke="#757575" d="M246.56,-715.68C262.63,-678.86 309.63,-567.74 335,-471.25 359.98,-376.28 302.76,-323.87 371,-253.25 388.98,-234.64 416.26,-227.38 441.17,-225.08"/>
<polygon fill="#757575" stroke="#757575" points="441.14,-228.59 450.89,-224.45 440.68,-221.61 441.14,-228.59"/>
</g>
<!-- approvalBox/FeRecipient.js&#45;&gt;utils/hoxUtils.js -->
<g id="edge35" class="edge">
<title>approvalBox/FeRecipient.js&#45;&gt;utils/hoxUtils.js</title>
<path fill="none" stroke="#757575" d="M335.26,-727.34C471,-725.66 729.37,-721.09 949,-709.25 989.09,-707.09 1033.98,-703.48 1069.52,-700.35"/>
<polygon fill="#757575" stroke="#757575" points="1069.55,-703.86 1079.2,-699.48 1068.93,-696.88 1069.55,-703.86"/>
</g>
<!-- approvalBox/FeRecipient.scss -->
<g id="node32" class="node">
<title>approvalBox/FeRecipient.scss</title>
<path fill="none" stroke="#cfffac" d="M598.21,-780.5C598.21,-780.5 405.04,-780.5 405.04,-780.5 400.96,-780.5 396.88,-776.42 396.88,-772.33 396.88,-772.33 396.88,-764.17 396.88,-764.17 396.88,-760.08 400.96,-756 405.04,-756 405.04,-756 598.21,-756 598.21,-756 602.29,-756 606.38,-760.08 606.38,-764.17 606.38,-764.17 606.38,-772.33 606.38,-772.33 606.38,-776.42 602.29,-780.5 598.21,-780.5"/>
<text text-anchor="middle" x="501.62" y="-763.2" font-family="Arial" font-size="14.00" fill="#cfffac">approvalBox/FeRecipient.scss</text>
</g>
<!-- approvalBox/FeRecipient.js&#45;&gt;approvalBox/FeRecipient.scss -->
<g id="edge32" class="edge">
<title>approvalBox/FeRecipient.js&#45;&gt;approvalBox/FeRecipient.scss</title>
<path fill="none" stroke="#757575" d="M323.5,-740.96C350,-745.04 379.53,-749.59 406.77,-753.79"/>
<polygon fill="#757575" stroke="#757575" points="405.98,-757.21 416.39,-755.27 407.04,-750.29 405.98,-757.21"/>
</g>
<!-- approvalBox/recipientInfo/FeRecList.js -->
<g id="node33" class="node">
<title>approvalBox/recipientInfo/FeRecList.js</title>
<path fill="none" stroke="#c6c5fe" d="M624.08,-511.5C624.08,-511.5 379.17,-511.5 379.17,-511.5 375.08,-511.5 371,-507.42 371,-503.33 371,-503.33 371,-495.17 371,-495.17 371,-491.08 375.08,-487 379.17,-487 379.17,-487 624.08,-487 624.08,-487 628.17,-487 632.25,-491.08 632.25,-495.17 632.25,-495.17 632.25,-503.33 632.25,-503.33 632.25,-507.42 628.17,-511.5 624.08,-511.5"/>
<text text-anchor="middle" x="501.62" y="-494.2" font-family="Arial" font-size="14.00" fill="#c6c5fe">approvalBox/recipientInfo/FeRecList.js</text>
</g>
<!-- approvalBox/FeRecipient.js&#45;&gt;approvalBox/recipientInfo/FeRecList.js -->
<g id="edge33" class="edge">
<title>approvalBox/FeRecipient.js&#45;&gt;approvalBox/recipientInfo/FeRecList.js</title>
<path fill="none" stroke="#757575" d="M255.33,-715.61C298.15,-677.84 425.42,-565.58 477.76,-519.42"/>
<polygon fill="#757575" stroke="#757575" points="480.02,-522.09 485.21,-512.85 475.39,-516.84 480.02,-522.09"/>
</g>
<!-- utils/stringUtils.js -->
<g id="node34" class="node">
<title>utils/stringUtils.js</title>
<path fill="none" stroke="#cfffac" d="M1738.83,-532.5C1738.83,-532.5 1634.92,-532.5 1634.92,-532.5 1630.83,-532.5 1626.75,-528.42 1626.75,-524.33 1626.75,-524.33 1626.75,-516.17 1626.75,-516.17 1626.75,-512.08 1630.83,-508 1634.92,-508 1634.92,-508 1738.83,-508 1738.83,-508 1742.92,-508 1747,-512.08 1747,-516.17 1747,-516.17 1747,-524.33 1747,-524.33 1747,-528.42 1742.92,-532.5 1738.83,-532.5"/>
<text text-anchor="middle" x="1686.88" y="-515.2" font-family="Arial" font-size="14.00" fill="#cfffac">utils/stringUtils.js</text>
</g>
<!-- approvalBox/FeRecipient.js&#45;&gt;utils/stringUtils.js -->
<g id="edge36" class="edge">
<title>approvalBox/FeRecipient.js&#45;&gt;utils/stringUtils.js</title>
<path fill="none" stroke="#757575" d="M244.92,-715.71C257.65,-676.63 301.03,-555.13 371,-478.25 516.07,-318.86 592.1,-267.25 807.62,-267.25 807.62,-267.25 807.62,-267.25 1136.12,-267.25 1344.22,-267.25 1423.39,-255.58 1590.75,-379.25 1632.84,-410.35 1662.24,-465.97 1676.35,-497.25"/>
<polygon fill="#757575" stroke="#757575" points="1673.05,-498.43 1680.25,-506.2 1679.47,-495.63 1673.05,-498.43"/>
</g>
<!-- approvalBox/FeSender.js&#45;&gt;_open_sources/dynatree.js -->
<g id="edge37" class="edge">
<title>approvalBox/FeSender.js&#45;&gt;_open_sources/dynatree.js</title>
<path fill="none" stroke="#757575" d="M888.17,-1203.99C918.42,-1208.85 953.31,-1214.38 985,-1219.25 1001.34,-1221.76 1018.69,-1224.37 1035.57,-1226.88"/>
<polygon fill="#757575" stroke="#757575" points="1034.67,-1230.28 1045.07,-1228.29 1035.7,-1223.36 1034.67,-1230.28"/>
</g>
<!-- approvalBox/FeSender.js&#45;&gt;utils/hoxUtils.js -->
<g id="edge39" class="edge">
<title>approvalBox/FeSender.js&#45;&gt;utils/hoxUtils.js</title>
<path fill="none" stroke="#757575" d="M848.34,-1178.51C881.06,-1165.56 926.15,-1142.1 949,-1105.25 994.75,-1031.47 925.3,-779.28 985,-716.25 1006.22,-693.84 1039.54,-687.41 1069.31,-686.99"/>
<polygon fill="#757575" stroke="#757575" points="1068.96,-690.49 1078.99,-687.09 1069.03,-683.49 1068.96,-690.49"/>
</g>
<!-- approvalBox/FeSender.scss -->
<g id="node35" class="node">
<title>approvalBox/FeSender.scss</title>
<path fill="none" stroke="#cfffac" d="M1224.96,-1296.5C1224.96,-1296.5 1045.29,-1296.5 1045.29,-1296.5 1041.21,-1296.5 1037.12,-1292.42 1037.12,-1288.33 1037.12,-1288.33 1037.12,-1280.17 1037.12,-1280.17 1037.12,-1276.08 1041.21,-1272 1045.29,-1272 1045.29,-1272 1224.96,-1272 1224.96,-1272 1229.04,-1272 1233.12,-1276.08 1233.12,-1280.17 1233.12,-1280.17 1233.12,-1288.33 1233.12,-1288.33 1233.12,-1292.42 1229.04,-1296.5 1224.96,-1296.5"/>
<text text-anchor="middle" x="1135.12" y="-1279.2" font-family="Arial" font-size="14.00" fill="#cfffac">approvalBox/FeSender.scss</text>
</g>
<!-- approvalBox/FeSender.js&#45;&gt;approvalBox/FeSender.scss -->
<g id="edge38" class="edge">
<title>approvalBox/FeSender.js&#45;&gt;approvalBox/FeSender.scss</title>
<path fill="none" stroke="#757575" d="M897.29,-1200.36C915.21,-1204.68 933.36,-1211.01 949,-1220.25 970.17,-1232.76 963.48,-1250.37 985,-1262.25 997.6,-1269.2 1011.66,-1274.18 1025.99,-1277.72"/>
<polygon fill="#757575" stroke="#757575" points="1024.97,-1281.08 1035.49,-1279.82 1026.48,-1274.25 1024.97,-1281.08"/>
</g>
<!-- utils/TabUI.scss -->
<g id="node58" class="node">
<title>utils/TabUI.scss</title>
<path fill="none" stroke="#cfffac" d="M859.08,-239.5C859.08,-239.5 758.17,-239.5 758.17,-239.5 754.08,-239.5 750,-235.42 750,-231.33 750,-231.33 750,-223.17 750,-223.17 750,-219.08 754.08,-215 758.17,-215 758.17,-215 859.08,-215 859.08,-215 863.17,-215 867.25,-219.08 867.25,-223.17 867.25,-223.17 867.25,-231.33 867.25,-231.33 867.25,-235.42 863.17,-239.5 859.08,-239.5"/>
<text text-anchor="middle" x="808.62" y="-222.2" font-family="Arial" font-size="14.00" fill="#cfffac">utils/TabUI.scss</text>
</g>
<!-- utils/TabUI.js&#45;&gt;utils/TabUI.scss -->
<g id="edge82" class="edge">
<title>utils/TabUI.js&#45;&gt;utils/TabUI.scss</title>
<path fill="none" stroke="#757575" d="M550.95,-227.25C601.4,-227.25 680.97,-227.25 738.15,-227.25"/>
<polygon fill="#757575" stroke="#757575" points="738.11,-230.75 748.11,-227.25 738.11,-223.75 738.11,-230.75"/>
</g>
<!-- approvalBox/docInfo/FeApprovalType.js&#45;&gt;utils/hoxUtils.js -->
<g id="edge41" class="edge">
<title>approvalBox/docInfo/FeApprovalType.js&#45;&gt;utils/hoxUtils.js</title>
<path fill="none" stroke="#757575" d="M936.91,-491.87C941.22,-494.6 945.27,-497.71 949,-501.25 1005.3,-554.75 928.43,-619.03 985,-672.25 1007.21,-693.15 1040.1,-699.58 1069.35,-700.38"/>
<polygon fill="#757575" stroke="#757575" points="1069.24,-703.88 1079.25,-700.42 1069.27,-696.88 1069.24,-703.88"/>
</g>
<!-- approvalBox/docInfo/FeApprovalType.scss -->
<g id="node36" class="node">
<title>approvalBox/docInfo/FeApprovalType.scss</title>
<path fill="none" stroke="#cfffac" d="M1272.21,-491.5C1272.21,-491.5 998.04,-491.5 998.04,-491.5 993.96,-491.5 989.88,-487.42 989.88,-483.33 989.88,-483.33 989.88,-475.17 989.88,-475.17 989.88,-471.08 993.96,-467 998.04,-467 998.04,-467 1272.21,-467 1272.21,-467 1276.29,-467 1280.38,-471.08 1280.38,-475.17 1280.38,-475.17 1280.38,-483.33 1280.38,-483.33 1280.38,-487.42 1276.29,-491.5 1272.21,-491.5"/>
<text text-anchor="middle" x="1135.12" y="-474.2" font-family="Arial" font-size="14.00" fill="#cfffac">approvalBox/docInfo/FeApprovalType.scss</text>
</g>
<!-- approvalBox/docInfo/FeApprovalType.js&#45;&gt;approvalBox/docInfo/FeApprovalType.scss -->
<g id="edge40" class="edge">
<title>approvalBox/docInfo/FeApprovalType.js&#45;&gt;approvalBox/docInfo/FeApprovalType.scss</title>
<path fill="none" stroke="#757575" d="M944.42,-479.25C955.59,-479.25 966.93,-479.25 978.24,-479.25"/>
<polygon fill="#757575" stroke="#757575" points="978.01,-482.75 988.01,-479.25 978.01,-475.75 978.01,-482.75"/>
</g>
<!-- approvalBox/docInfo/FeDocNumber.js&#45;&gt;utils/hoxUtils.js -->
<g id="edge43" class="edge">
<title>approvalBox/docInfo/FeDocNumber.js&#45;&gt;utils/hoxUtils.js</title>
<path fill="none" stroke="#757575" d="M937.4,-448.88C941.54,-451.61 945.43,-454.72 949,-458.25 1017.54,-526.1 916.12,-604.74 985,-672.25 1006.86,-693.68 1039.88,-700.12 1069.3,-700.79"/>
<polygon fill="#757575" stroke="#757575" points="1069.27,-704.29 1079.27,-700.78 1069.27,-697.29 1069.27,-704.29"/>
</g>
<!-- approvalBox/docInfo/FeDocNumber.scss -->
<g id="node37" class="node">
<title>approvalBox/docInfo/FeDocNumber.scss</title>
<path fill="none" stroke="#cfffac" d="M1266.21,-448.5C1266.21,-448.5 1004.04,-448.5 1004.04,-448.5 999.96,-448.5 995.88,-444.42 995.88,-440.33 995.88,-440.33 995.88,-432.17 995.88,-432.17 995.88,-428.08 999.96,-424 1004.04,-424 1004.04,-424 1266.21,-424 1266.21,-424 1270.29,-424 1274.38,-428.08 1274.38,-432.17 1274.38,-432.17 1274.38,-440.33 1274.38,-440.33 1274.38,-444.42 1270.29,-448.5 1266.21,-448.5"/>
<text text-anchor="middle" x="1135.12" y="-431.2" font-family="Arial" font-size="14.00" fill="#cfffac">approvalBox/docInfo/FeDocNumber.scss</text>
</g>
<!-- approvalBox/docInfo/FeDocNumber.js&#45;&gt;approvalBox/docInfo/FeDocNumber.scss -->
<g id="edge42" class="edge">
<title>approvalBox/docInfo/FeDocNumber.js&#45;&gt;approvalBox/docInfo/FeDocNumber.scss</title>
<path fill="none" stroke="#757575" d="M938.34,-436.25C953.44,-436.25 968.93,-436.25 984.28,-436.25"/>
<polygon fill="#757575" stroke="#757575" points="983.91,-439.75 993.91,-436.25 983.91,-432.75 983.91,-439.75"/>
</g>
<!-- approvalBox/docInfo/FeEnforceType.js&#45;&gt;utils/hoxUtils.js -->
<g id="edge45" class="edge">
<title>approvalBox/docInfo/FeEnforceType.js&#45;&gt;utils/hoxUtils.js</title>
<path fill="none" stroke="#757575" d="M937.83,-405.96C941.82,-408.67 945.57,-411.76 949,-415.25 1029.84,-497.51 903.74,-590.4 985,-672.25 1006.66,-694.07 1039.85,-700.5 1069.42,-701.06"/>
<polygon fill="#757575" stroke="#757575" points="1069.05,-704.56 1079.04,-701.02 1069.02,-697.56 1069.05,-704.56"/>
</g>
<!-- approvalBox/docInfo/FeEnforceType.scss -->
<g id="node38" class="node">
<title>approvalBox/docInfo/FeEnforceType.scss</title>
<path fill="none" stroke="#cfffac" d="M1269.21,-405.5C1269.21,-405.5 1001.04,-405.5 1001.04,-405.5 996.96,-405.5 992.88,-401.42 992.88,-397.33 992.88,-397.33 992.88,-389.17 992.88,-389.17 992.88,-385.08 996.96,-381 1001.04,-381 1001.04,-381 1269.21,-381 1269.21,-381 1273.29,-381 1277.38,-385.08 1277.38,-389.17 1277.38,-389.17 1277.38,-397.33 1277.38,-397.33 1277.38,-401.42 1273.29,-405.5 1269.21,-405.5"/>
<text text-anchor="middle" x="1135.12" y="-388.2" font-family="Arial" font-size="14.00" fill="#cfffac">approvalBox/docInfo/FeEnforceType.scss</text>
</g>
<!-- approvalBox/docInfo/FeEnforceType.js&#45;&gt;approvalBox/docInfo/FeEnforceType.scss -->
<g id="edge44" class="edge">
<title>approvalBox/docInfo/FeEnforceType.js&#45;&gt;approvalBox/docInfo/FeEnforceType.scss</title>
<path fill="none" stroke="#757575" d="M941.61,-393.25C954.7,-393.25 968.07,-393.25 981.35,-393.25"/>
<polygon fill="#757575" stroke="#757575" points="980.96,-396.75 990.96,-393.25 980.96,-389.75 980.96,-396.75"/>
</g>
<!-- approvalBox/docInfo/FeFlag.js&#45;&gt;utils/hoxUtils.js -->
<g id="edge47" class="edge">
<title>approvalBox/docInfo/FeFlag.js&#45;&gt;utils/hoxUtils.js</title>
<path fill="none" stroke="#757575" d="M913.97,-938.53C927.02,-934.31 939.2,-927.85 949,-918.25 1014.12,-854.41 919.56,-779.76 985,-716.25 1006.88,-695.01 1039.74,-688.55 1069.05,-687.81"/>
<polygon fill="#757575" stroke="#757575" points="1068.99,-691.31 1078.99,-687.8 1068.99,-684.31 1068.99,-691.31"/>
</g>
<!-- approvalBox/docInfo/FeFlag.scss -->
<g id="node39" class="node">
<title>approvalBox/docInfo/FeFlag.scss</title>
<path fill="none" stroke="#cfffac" d="M1241.83,-921.5C1241.83,-921.5 1028.42,-921.5 1028.42,-921.5 1024.33,-921.5 1020.25,-917.42 1020.25,-913.33 1020.25,-913.33 1020.25,-905.17 1020.25,-905.17 1020.25,-901.08 1024.33,-897 1028.42,-897 1028.42,-897 1241.83,-897 1241.83,-897 1245.92,-897 1250,-901.08 1250,-905.17 1250,-905.17 1250,-913.33 1250,-913.33 1250,-917.42 1245.92,-921.5 1241.83,-921.5"/>
<text text-anchor="middle" x="1135.12" y="-904.2" font-family="Arial" font-size="14.00" fill="#cfffac">approvalBox/docInfo/FeFlag.scss</text>
</g>
<!-- approvalBox/docInfo/FeFlag.js&#45;&gt;approvalBox/docInfo/FeFlag.scss -->
<g id="edge46" class="edge">
<title>approvalBox/docInfo/FeFlag.js&#45;&gt;approvalBox/docInfo/FeFlag.scss</title>
<path fill="none" stroke="#757575" d="M914.09,-930.27C944.12,-927.4 977.19,-924.24 1008.36,-921.26"/>
<polygon fill="#757575" stroke="#757575" points="1008.63,-924.76 1018.25,-920.32 1007.96,-917.79 1008.63,-924.76"/>
</g>
<!-- approvalBox/docInfo/FeFolder.js&#45;&gt;_open_sources/dynatree.js -->
<g id="edge48" class="edge">
<title>approvalBox/docInfo/FeFolder.js&#45;&gt;_open_sources/dynatree.js</title>
<path fill="none" stroke="#757575" d="M920.73,-1001.35C931.25,-1005.92 940.96,-1012.06 949,-1020.25 1011.94,-1084.41 920.42,-1156.74 985,-1219.25 997.26,-1231.12 1012.95,-1238.37 1029.53,-1242.58"/>
<polygon fill="#757575" stroke="#757575" points="1028.54,-1245.95 1039.05,-1244.62 1030,-1239.1 1028.54,-1245.95"/>
</g>
<!-- approvalBox/docInfo/FeFolder.js&#45;&gt;utils/hoxUtils.js -->
<g id="edge52" class="edge">
<title>approvalBox/docInfo/FeFolder.js&#45;&gt;utils/hoxUtils.js</title>
<path fill="none" stroke="#757575" d="M920.77,-981.06C931.35,-976.23 941.07,-969.78 949,-961.25 1023.93,-880.64 907.2,-794.1 985,-716.25 1006.64,-694.6 1039.64,-688.14 1069.1,-687.51"/>
<polygon fill="#757575" stroke="#757575" points="1069.08,-691.01 1079.09,-687.54 1069.1,-684.01 1069.08,-691.01"/>
</g>
<!-- approvalBox/docInfo/FeFolder.scss -->
<g id="node40" class="node">
<title>approvalBox/docInfo/FeFolder.scss</title>
<path fill="none" stroke="#cfffac" d="M1248.58,-1007.5C1248.58,-1007.5 1021.67,-1007.5 1021.67,-1007.5 1017.58,-1007.5 1013.5,-1003.42 1013.5,-999.33 1013.5,-999.33 1013.5,-991.17 1013.5,-991.17 1013.5,-987.08 1017.58,-983 1021.67,-983 1021.67,-983 1248.58,-983 1248.58,-983 1252.67,-983 1256.75,-987.08 1256.75,-991.17 1256.75,-991.17 1256.75,-999.33 1256.75,-999.33 1256.75,-1003.42 1252.67,-1007.5 1248.58,-1007.5"/>
<text text-anchor="middle" x="1135.12" y="-990.2" font-family="Arial" font-size="14.00" fill="#cfffac">approvalBox/docInfo/FeFolder.scss</text>
</g>
<!-- approvalBox/docInfo/FeFolder.js&#45;&gt;approvalBox/docInfo/FeFolder.scss -->
<g id="edge49" class="edge">
<title>approvalBox/docInfo/FeFolder.js&#45;&gt;approvalBox/docInfo/FeFolder.scss</title>
<path fill="none" stroke="#757575" d="M920.85,-993.28C946.85,-993.52 974.81,-993.78 1001.64,-994.03"/>
<polygon fill="#757575" stroke="#757575" points="1001.51,-997.52 1011.54,-994.12 1001.58,-990.52 1001.51,-997.52"/>
</g>
<!-- utils/FeStorage.js -->
<g id="node41" class="node">
<title>utils/FeStorage.js</title>
<path fill="none" stroke="#cfffac" d="M1190.08,-964.5C1190.08,-964.5 1080.17,-964.5 1080.17,-964.5 1076.08,-964.5 1072,-960.42 1072,-956.33 1072,-956.33 1072,-948.17 1072,-948.17 1072,-944.08 1076.08,-940 1080.17,-940 1080.17,-940 1190.08,-940 1190.08,-940 1194.17,-940 1198.25,-944.08 1198.25,-948.17 1198.25,-948.17 1198.25,-956.33 1198.25,-956.33 1198.25,-960.42 1194.17,-964.5 1190.08,-964.5"/>
<text text-anchor="middle" x="1135.12" y="-947.2" font-family="Arial" font-size="14.00" fill="#cfffac">utils/FeStorage.js</text>
</g>
<!-- approvalBox/docInfo/FeFolder.js&#45;&gt;utils/FeStorage.js -->
<g id="edge50" class="edge">
<title>approvalBox/docInfo/FeFolder.js&#45;&gt;utils/FeStorage.js</title>
<path fill="none" stroke="#757575" d="M912.74,-979.54C960.79,-973.62 1016.84,-966.71 1060.52,-961.32"/>
<polygon fill="#757575" stroke="#757575" points="1060.92,-964.8 1070.42,-960.1 1060.07,-957.85 1060.92,-964.8"/>
</g>
<!-- utils/dateUtils.js -->
<g id="node42" class="node">
<title>utils/dateUtils.js</title>
<path fill="none" stroke="#cfffac" d="M1183.71,-1050.5C1183.71,-1050.5 1086.54,-1050.5 1086.54,-1050.5 1082.46,-1050.5 1078.38,-1046.42 1078.38,-1042.33 1078.38,-1042.33 1078.38,-1034.17 1078.38,-1034.17 1078.38,-1030.08 1082.46,-1026 1086.54,-1026 1086.54,-1026 1183.71,-1026 1183.71,-1026 1187.79,-1026 1191.88,-1030.08 1191.88,-1034.17 1191.88,-1034.17 1191.88,-1042.33 1191.88,-1042.33 1191.88,-1046.42 1187.79,-1050.5 1183.71,-1050.5"/>
<text text-anchor="middle" x="1135.12" y="-1033.2" font-family="Arial" font-size="14.00" fill="#cfffac">utils/dateUtils.js</text>
</g>
<!-- approvalBox/docInfo/FeFolder.js&#45;&gt;utils/dateUtils.js -->
<g id="edge51" class="edge">
<title>approvalBox/docInfo/FeFolder.js&#45;&gt;utils/dateUtils.js</title>
<path fill="none" stroke="#757575" d="M899.16,-1004.94C952.13,-1012.45 1018.14,-1021.81 1066.69,-1028.69"/>
<polygon fill="#757575" stroke="#757575" points="1066.13,-1032.15 1076.52,-1030.08 1067.11,-1025.21 1066.13,-1032.15"/>
</g>
<!-- approvalBox/docInfo/FeKeepPeriod.js&#45;&gt;utils/hoxUtils.js -->
<g id="edge54" class="edge">
<title>approvalBox/docInfo/FeKeepPeriod.js&#45;&gt;utils/hoxUtils.js</title>
<path fill="none" stroke="#757575" d="M936.85,-884.56C941.17,-881.85 945.24,-878.77 949,-875.25 1001.9,-825.74 931.85,-765.5 985,-716.25 1007.28,-695.6 1040.02,-689.16 1069.15,-688.28"/>
<polygon fill="#757575" stroke="#757575" points="1069.04,-691.78 1079.02,-688.21 1068.99,-684.78 1069.04,-691.78"/>
</g>
<!-- approvalBox/docInfo/FeKeepPeriod.scss -->
<g id="node43" class="node">
<title>approvalBox/docInfo/FeKeepPeriod.scss</title>
<path fill="none" stroke="#cfffac" d="M1266.21,-878.5C1266.21,-878.5 1004.04,-878.5 1004.04,-878.5 999.96,-878.5 995.88,-874.42 995.88,-870.33 995.88,-870.33 995.88,-862.17 995.88,-862.17 995.88,-858.08 999.96,-854 1004.04,-854 1004.04,-854 1266.21,-854 1266.21,-854 1270.29,-854 1274.38,-858.08 1274.38,-862.17 1274.38,-862.17 1274.38,-870.33 1274.38,-870.33 1274.38,-874.42 1270.29,-878.5 1266.21,-878.5"/>
<text text-anchor="middle" x="1135.12" y="-861.2" font-family="Arial" font-size="14.00" fill="#cfffac">approvalBox/docInfo/FeKeepPeriod.scss</text>
</g>
<!-- approvalBox/docInfo/FeKeepPeriod.js&#45;&gt;approvalBox/docInfo/FeKeepPeriod.scss -->
<g id="edge53" class="edge">
<title>approvalBox/docInfo/FeKeepPeriod.js&#45;&gt;approvalBox/docInfo/FeKeepPeriod.scss</title>
<path fill="none" stroke="#757575" d="M938.34,-884.95C955.18,-883.34 972.52,-881.69 989.6,-880.06"/>
<polygon fill="#757575" stroke="#757575" points="989.65,-883.57 999.27,-879.13 988.98,-876.6 989.65,-883.57"/>
</g>
<!-- approvalBox/docInfo/FePageCnt.js&#45;&gt;utils/hoxUtils.js -->
<g id="edge56" class="edge">
<title>approvalBox/docInfo/FePageCnt.js&#45;&gt;utils/hoxUtils.js</title>
<path fill="none" stroke="#757575" d="M928.07,-845.6C935.62,-842.09 942.7,-837.7 949,-832.25 989.82,-796.93 944,-751.36 985,-716.25 1007.99,-696.56 1040.64,-690.17 1069.53,-689.09"/>
<polygon fill="#757575" stroke="#757575" points="1069.35,-692.59 1079.29,-688.94 1069.24,-685.59 1069.35,-692.59"/>
</g>
<!-- approvalBox/docInfo/FePageCnt.scss -->
<g id="node44" class="node">
<title>approvalBox/docInfo/FePageCnt.scss</title>
<path fill="none" stroke="#cfffac" d="M1255.71,-835.5C1255.71,-835.5 1014.54,-835.5 1014.54,-835.5 1010.46,-835.5 1006.38,-831.42 1006.38,-827.33 1006.38,-827.33 1006.38,-819.17 1006.38,-819.17 1006.38,-815.08 1010.46,-811 1014.54,-811 1014.54,-811 1255.71,-811 1255.71,-811 1259.79,-811 1263.88,-815.08 1263.88,-819.17 1263.88,-819.17 1263.88,-827.33 1263.88,-827.33 1263.88,-831.42 1259.79,-835.5 1255.71,-835.5"/>
<text text-anchor="middle" x="1135.12" y="-818.2" font-family="Arial" font-size="14.00" fill="#cfffac">approvalBox/docInfo/FePageCnt.scss</text>
</g>
<!-- approvalBox/docInfo/FePageCnt.js&#45;&gt;approvalBox/docInfo/FePageCnt.scss -->
<g id="edge55" class="edge">
<title>approvalBox/docInfo/FePageCnt.js&#45;&gt;approvalBox/docInfo/FePageCnt.scss</title>
<path fill="none" stroke="#757575" d="M927.69,-842.97C949.48,-840.89 972.41,-838.7 994.75,-836.56"/>
<polygon fill="#757575" stroke="#757575" points="994.88,-840.07 1004.5,-835.63 994.22,-833.1 994.88,-840.07"/>
</g>
<!-- approvalBox/docInfo/FePublication.js&#45;&gt;utils/hoxUtils.js -->
<g id="edge61" class="edge">
<title>approvalBox/docInfo/FePublication.js&#45;&gt;utils/hoxUtils.js</title>
<path fill="none" stroke="#757575" d="M929.1,-1028.68C936.46,-1024.57 943.22,-1019.5 949,-1013.25 1039.3,-915.65 892.2,-811.48 985,-716.25 1006.54,-694.15 1039.88,-687.74 1069.58,-687.26"/>
<polygon fill="#757575" stroke="#757575" points="1069.21,-690.75 1079.24,-687.33 1069.27,-683.75 1069.21,-690.75"/>
</g>
<!-- approvalBox/docInfo/FePublication.js&#45;&gt;utils/stringUtils.js -->
<g id="edge62" class="edge">
<title>approvalBox/docInfo/FePublication.js&#45;&gt;utils/stringUtils.js</title>
<path fill="none" stroke="#757575" d="M933.63,-1053.86C939.03,-1056.54 944.2,-1059.65 949,-1063.25 978.92,-1085.65 953.42,-1119.26 985,-1139.25 1041.38,-1174.93 1225.86,-1169.66 1285.25,-1139.25 1537.66,-1010.01 1653.22,-640.93 1679.77,-543.87"/>
<polygon fill="#757575" stroke="#757575" points="1683.1,-544.98 1682.3,-534.41 1676.33,-543.17 1683.1,-544.98"/>
</g>
<!-- approvalBox/docInfo/FePublication.js&#45;&gt;utils/dateUtils.js -->
<g id="edge60" class="edge">
<title>approvalBox/docInfo/FePublication.js&#45;&gt;utils/dateUtils.js</title>
<path fill="none" stroke="#757575" d="M934.62,-1040.09C979.44,-1039.68 1028.27,-1039.23 1066.4,-1038.88"/>
<polygon fill="#757575" stroke="#757575" points="1066.4,-1042.38 1076.36,-1038.78 1066.33,-1035.38 1066.4,-1042.38"/>
</g>
<!-- approvalBox/docInfo/FePublication.json -->
<g id="node45" class="node">
<title>approvalBox/docInfo/FePublication.json</title>
<path fill="none" stroke="#cfffac" d="M1260.58,-1130.5C1260.58,-1130.5 1009.67,-1130.5 1009.67,-1130.5 1005.58,-1130.5 1001.5,-1126.42 1001.5,-1122.33 1001.5,-1122.33 1001.5,-1114.17 1001.5,-1114.17 1001.5,-1110.08 1005.58,-1106 1009.67,-1106 1009.67,-1106 1260.58,-1106 1260.58,-1106 1264.67,-1106 1268.75,-1110.08 1268.75,-1114.17 1268.75,-1114.17 1268.75,-1122.33 1268.75,-1122.33 1268.75,-1126.42 1264.67,-1130.5 1260.58,-1130.5"/>
<text text-anchor="middle" x="1135.12" y="-1113.2" font-family="Arial" font-size="14.00" fill="#cfffac">approvalBox/docInfo/FePublication.json</text>
</g>
<!-- approvalBox/docInfo/FePublication.js&#45;&gt;approvalBox/docInfo/FePublication.json -->
<g id="edge57" class="edge">
<title>approvalBox/docInfo/FePublication.js&#45;&gt;approvalBox/docInfo/FePublication.json</title>
<path fill="none" stroke="#757575" d="M922.92,-1053.94C931.91,-1056.5 940.71,-1059.58 949,-1063.25 967.78,-1071.58 966.29,-1083.77 985,-1092.25 993.87,-1096.27 1003.3,-1099.67 1012.93,-1102.54"/>
<polygon fill="#757575" stroke="#757575" points="1011.85,-1105.88 1022.42,-1105.17 1013.72,-1099.13 1011.85,-1105.88"/>
</g>
<!-- approvalBox/docInfo/FePublication.scss -->
<g id="node46" class="node">
<title>approvalBox/docInfo/FePublication.scss</title>
<path fill="none" stroke="#cfffac" d="M1262.46,-1210.5C1262.46,-1210.5 1007.79,-1210.5 1007.79,-1210.5 1003.71,-1210.5 999.62,-1206.42 999.62,-1202.33 999.62,-1202.33 999.62,-1194.17 999.62,-1194.17 999.62,-1190.08 1003.71,-1186 1007.79,-1186 1007.79,-1186 1262.46,-1186 1262.46,-1186 1266.54,-1186 1270.62,-1190.08 1270.62,-1194.17 1270.62,-1194.17 1270.62,-1202.33 1270.62,-1202.33 1270.62,-1206.42 1266.54,-1210.5 1262.46,-1210.5"/>
<text text-anchor="middle" x="1135.12" y="-1193.2" font-family="Arial" font-size="14.00" fill="#cfffac">approvalBox/docInfo/FePublication.scss</text>
</g>
<!-- approvalBox/docInfo/FePublication.js&#45;&gt;approvalBox/docInfo/FePublication.scss -->
<g id="edge58" class="edge">
<title>approvalBox/docInfo/FePublication.js&#45;&gt;approvalBox/docInfo/FePublication.scss</title>
<path fill="none" stroke="#757575" d="M934.84,-1053.51C939.86,-1056.29 944.61,-1059.52 949,-1063.25 987.88,-1096.28 946.38,-1138.91 985,-1172.25 988.28,-1175.08 991.75,-1177.65 995.38,-1179.99"/>
<polygon fill="#757575" stroke="#757575" points="993.58,-1182.99 1004.01,-1184.89 997.04,-1176.91 993.58,-1182.99"/>
</g>
<!-- utils/arrayUtils.js -->
<g id="node47" class="node">
<title>utils/arrayUtils.js</title>
<path fill="none" stroke="#c6c5fe" d="M1506.08,-706.5C1506.08,-706.5 1405.92,-706.5 1405.92,-706.5 1401.83,-706.5 1397.75,-702.42 1397.75,-698.33 1397.75,-698.33 1397.75,-690.17 1397.75,-690.17 1397.75,-686.08 1401.83,-682 1405.92,-682 1405.92,-682 1506.08,-682 1506.08,-682 1510.17,-682 1514.25,-686.08 1514.25,-690.17 1514.25,-690.17 1514.25,-698.33 1514.25,-698.33 1514.25,-702.42 1510.17,-706.5 1506.08,-706.5"/>
<text text-anchor="middle" x="1456" y="-689.2" font-family="Arial" font-size="14.00" fill="#c6c5fe">utils/arrayUtils.js</text>
</g>
<!-- approvalBox/docInfo/FePublication.js&#45;&gt;utils/arrayUtils.js -->
<g id="edge59" class="edge">
<title>approvalBox/docInfo/FePublication.js&#45;&gt;utils/arrayUtils.js</title>
<path fill="none" stroke="#757575" d="M916.61,-1053.99C939.16,-1056.18 962.84,-1058.12 985,-1059.25 1118.27,-1066.07 1172.74,-1131.01 1285.25,-1059.25 1408.95,-980.36 1443.92,-785.4 1452.5,-717.79"/>
<polygon fill="#757575" stroke="#757575" points="1455.94,-718.55 1453.64,-708.21 1448.99,-717.73 1455.94,-718.55"/>
</g>
<!-- approvalBox/docInfo/FeSecurityLevel.js&#45;&gt;utils/hoxUtils.js -->
<g id="edge64" class="edge">
<title>approvalBox/docInfo/FeSecurityLevel.js&#45;&gt;utils/hoxUtils.js</title>
<path fill="none" stroke="#757575" d="M933.56,-798.54C938.98,-795.89 944.17,-792.81 949,-789.25 978.13,-767.8 955.76,-737.55 985,-716.25 1008.98,-698.78 1040.97,-692.47 1069.17,-690.86"/>
<polygon fill="#757575" stroke="#757575" points="1069.2,-694.36 1079.07,-690.5 1068.95,-687.37 1069.2,-694.36"/>
</g>
<!-- approvalBox/docInfo/FeSecurityLevel.scss -->
<g id="node48" class="node">
<title>approvalBox/docInfo/FeSecurityLevel.scss</title>
<path fill="none" stroke="#cfffac" d="M1270.71,-792.5C1270.71,-792.5 999.54,-792.5 999.54,-792.5 995.46,-792.5 991.38,-788.42 991.38,-784.33 991.38,-784.33 991.38,-776.17 991.38,-776.17 991.38,-772.08 995.46,-768 999.54,-768 999.54,-768 1270.71,-768 1270.71,-768 1274.79,-768 1278.88,-772.08 1278.88,-776.17 1278.88,-776.17 1278.88,-784.33 1278.88,-784.33 1278.88,-788.42 1274.79,-792.5 1270.71,-792.5"/>
<text text-anchor="middle" x="1135.12" y="-775.2" font-family="Arial" font-size="14.00" fill="#cfffac">approvalBox/docInfo/FeSecurityLevel.scss</text>
</g>
<!-- approvalBox/docInfo/FeSecurityLevel.js&#45;&gt;approvalBox/docInfo/FeSecurityLevel.scss -->
<g id="edge63" class="edge">
<title>approvalBox/docInfo/FeSecurityLevel.js&#45;&gt;approvalBox/docInfo/FeSecurityLevel.scss</title>
<path fill="none" stroke="#757575" d="M943.02,-798.51C958.35,-797.04 974.04,-795.54 989.51,-794.07"/>
<polygon fill="#757575" stroke="#757575" points="989.6,-797.57 999.22,-793.14 988.93,-790.6 989.6,-797.57"/>
</g>
<!-- approvalBox/docInfo/FeSpecialDoc.js&#45;&gt;utils/hoxUtils.js -->
<g id="edge66" class="edge">
<title>approvalBox/docInfo/FeSpecialDoc.js&#45;&gt;utils/hoxUtils.js</title>
<path fill="none" stroke="#757575" d="M907.97,-755.56C922.04,-752.13 936.1,-747.78 949,-742.25 967.14,-734.47 966.72,-723.68 985,-716.25 1011.52,-705.47 1042.6,-699.89 1069.5,-697.03"/>
<polygon fill="#757575" stroke="#757575" points="1069.62,-700.53 1079.24,-696.11 1068.96,-693.57 1069.62,-700.53"/>
</g>
<!-- approvalBox/docInfo/FeSpecialDoc.scss -->
<g id="node49" class="node">
<title>approvalBox/docInfo/FeSpecialDoc.scss</title>
<path fill="none" stroke="#cfffac" d="M1264.71,-749.5C1264.71,-749.5 1005.54,-749.5 1005.54,-749.5 1001.46,-749.5 997.38,-745.42 997.38,-741.33 997.38,-741.33 997.38,-733.17 997.38,-733.17 997.38,-729.08 1001.46,-725 1005.54,-725 1005.54,-725 1264.71,-725 1264.71,-725 1268.79,-725 1272.88,-729.08 1272.88,-733.17 1272.88,-733.17 1272.88,-741.33 1272.88,-741.33 1272.88,-745.42 1268.79,-749.5 1264.71,-749.5"/>
<text text-anchor="middle" x="1135.12" y="-732.2" font-family="Arial" font-size="14.00" fill="#cfffac">approvalBox/docInfo/FeSpecialDoc.scss</text>
</g>
<!-- approvalBox/docInfo/FeSpecialDoc.js&#45;&gt;approvalBox/docInfo/FeSpecialDoc.scss -->
<g id="edge65" class="edge">
<title>approvalBox/docInfo/FeSpecialDoc.js&#45;&gt;approvalBox/docInfo/FeSpecialDoc.scss</title>
<path fill="none" stroke="#757575" d="M936.94,-756.09C954.13,-754.45 971.87,-752.75 989.33,-751.08"/>
<polygon fill="#757575" stroke="#757575" points="989.63,-754.57 999.25,-750.13 988.97,-747.6 989.63,-754.57"/>
</g>
<!-- approvalBox/docInfo/FeSpecialList.js&#45;&gt;utils/hoxUtils.js -->
<g id="edge68" class="edge">
<title>approvalBox/docInfo/FeSpecialList.js&#45;&gt;utils/hoxUtils.js</title>
<path fill="none" stroke="#757575" d="M935.09,-690.57C981.02,-691.42 1031.11,-692.35 1069.55,-693.06"/>
<polygon fill="#757575" stroke="#757575" points="1069.01,-696.55 1079.07,-693.23 1069.13,-689.55 1069.01,-696.55"/>
</g>
<!-- approvalBox/docInfo/FeSpecialList.scss -->
<g id="node50" class="node">
<title>approvalBox/docInfo/FeSpecialList.scss</title>
<path fill="none" stroke="#cfffac" d="M1262.83,-663.5C1262.83,-663.5 1007.42,-663.5 1007.42,-663.5 1003.33,-663.5 999.25,-659.42 999.25,-655.33 999.25,-655.33 999.25,-647.17 999.25,-647.17 999.25,-643.08 1003.33,-639 1007.42,-639 1007.42,-639 1262.83,-639 1262.83,-639 1266.92,-639 1271,-643.08 1271,-647.17 1271,-647.17 1271,-655.33 1271,-655.33 1271,-659.42 1266.92,-663.5 1262.83,-663.5"/>
<text text-anchor="middle" x="1135.12" y="-646.2" font-family="Arial" font-size="14.00" fill="#cfffac">approvalBox/docInfo/FeSpecialList.scss</text>
</g>
<!-- approvalBox/docInfo/FeSpecialList.js&#45;&gt;approvalBox/docInfo/FeSpecialList.scss -->
<g id="edge67" class="edge">
<title>approvalBox/docInfo/FeSpecialList.js&#45;&gt;approvalBox/docInfo/FeSpecialList.scss</title>
<path fill="none" stroke="#757575" d="M921.3,-675.52C950.32,-672.21 981.73,-668.63 1011.29,-665.26"/>
<polygon fill="#757575" stroke="#757575" points="1011.48,-668.76 1021.02,-664.15 1010.68,-661.8 1011.48,-668.76"/>
</g>
<!-- approvalBox/docInfo/FeTitle.js&#45;&gt;utils/hoxUtils.js -->
<g id="edge70" class="edge">
<title>approvalBox/docInfo/FeTitle.js&#45;&gt;utils/hoxUtils.js</title>
<path fill="none" stroke="#757575" d="M913.76,-620.13C926.05,-623.7 938.08,-628.31 949,-634.25 969.43,-645.37 964.36,-661.52 985,-672.25 1010.7,-685.61 1042.06,-691.53 1069.37,-693.95"/>
<polygon fill="#757575" stroke="#757575" points="1069.06,-697.43 1079.29,-694.67 1069.57,-690.45 1069.06,-697.43"/>
</g>
<!-- approvalBox/docInfo/FeTitle.scss -->
<g id="node51" class="node">
<title>approvalBox/docInfo/FeTitle.scss</title>
<path fill="none" stroke="#cfffac" d="M1241.46,-620.5C1241.46,-620.5 1028.79,-620.5 1028.79,-620.5 1024.71,-620.5 1020.62,-616.42 1020.62,-612.33 1020.62,-612.33 1020.62,-604.17 1020.62,-604.17 1020.62,-600.08 1024.71,-596 1028.79,-596 1028.79,-596 1241.46,-596 1241.46,-596 1245.54,-596 1249.62,-600.08 1249.62,-604.17 1249.62,-604.17 1249.62,-612.33 1249.62,-612.33 1249.62,-616.42 1245.54,-620.5 1241.46,-620.5"/>
<text text-anchor="middle" x="1135.12" y="-603.2" font-family="Arial" font-size="14.00" fill="#cfffac">approvalBox/docInfo/FeTitle.scss</text>
</g>
<!-- approvalBox/docInfo/FeTitle.js&#45;&gt;approvalBox/docInfo/FeTitle.scss -->
<g id="edge69" class="edge">
<title>approvalBox/docInfo/FeTitle.js&#45;&gt;approvalBox/docInfo/FeTitle.scss</title>
<path fill="none" stroke="#757575" d="M913.64,-608.25C943.93,-608.25 977.35,-608.25 1008.82,-608.25"/>
<polygon fill="#757575" stroke="#757575" points="1008.8,-611.75 1018.8,-608.25 1008.8,-604.75 1008.8,-611.75"/>
</g>
<!-- approvalBox/docInfo/FeViewRange.js&#45;&gt;utils/hoxUtils.js -->
<g id="edge72" class="edge">
<title>approvalBox/docInfo/FeViewRange.js&#45;&gt;utils/hoxUtils.js</title>
<path fill="none" stroke="#757575" d="M934.47,-577.96C939.59,-580.63 944.46,-583.71 949,-587.25 981.33,-612.51 952.55,-647.15 985,-672.25 1008.56,-690.47 1040.65,-696.84 1069.03,-698.29"/>
<polygon fill="#757575" stroke="#757575" points="1068.9,-701.79 1079,-698.59 1069.11,-694.79 1068.9,-701.79"/>
</g>
<!-- approvalBox/docInfo/FeViewRange.scss -->
<g id="node52" class="node">
<title>approvalBox/docInfo/FeViewRange.scss</title>
<path fill="none" stroke="#cfffac" d="M1264.33,-577.5C1264.33,-577.5 1005.92,-577.5 1005.92,-577.5 1001.83,-577.5 997.75,-573.42 997.75,-569.33 997.75,-569.33 997.75,-561.17 997.75,-561.17 997.75,-557.08 1001.83,-553 1005.92,-553 1005.92,-553 1264.33,-553 1264.33,-553 1268.42,-553 1272.5,-557.08 1272.5,-561.17 1272.5,-561.17 1272.5,-569.33 1272.5,-569.33 1272.5,-573.42 1268.42,-577.5 1264.33,-577.5"/>
<text text-anchor="middle" x="1135.12" y="-560.2" font-family="Arial" font-size="14.00" fill="#cfffac">approvalBox/docInfo/FeViewRange.scss</text>
</g>
<!-- approvalBox/docInfo/FeViewRange.js&#45;&gt;approvalBox/docInfo/FeViewRange.scss -->
<g id="edge71" class="edge">
<title>approvalBox/docInfo/FeViewRange.js&#45;&gt;approvalBox/docInfo/FeViewRange.scss</title>
<path fill="none" stroke="#757575" d="M936.48,-565.25C952.73,-565.25 969.47,-565.25 986.02,-565.25"/>
<polygon fill="#757575" stroke="#757575" points="985.93,-568.75 995.93,-565.25 985.93,-561.75 985.93,-568.75"/>
</g>
<!-- approvalBox/docInfo/FeViewRestriction.js&#45;&gt;utils/hoxUtils.js -->
<g id="edge74" class="edge">
<title>approvalBox/docInfo/FeViewRestriction.js&#45;&gt;utils/hoxUtils.js</title>
<path fill="none" stroke="#757575" d="M935.99,-534.82C940.61,-537.54 944.97,-540.67 949,-544.25 993.17,-583.51 940.63,-633.21 985,-672.25 1007.72,-692.24 1040.35,-698.66 1069.29,-699.69"/>
<polygon fill="#757575" stroke="#757575" points="1069.04,-703.19 1079.08,-699.81 1069.13,-696.19 1069.04,-703.19"/>
</g>
<!-- approvalBox/docInfo/FeViewRestriction.scss -->
<g id="node53" class="node">
<title>approvalBox/docInfo/FeViewRestriction.scss</title>
<path fill="none" stroke="#cfffac" d="M1277.08,-534.5C1277.08,-534.5 993.17,-534.5 993.17,-534.5 989.08,-534.5 985,-530.42 985,-526.33 985,-526.33 985,-518.17 985,-518.17 985,-514.08 989.08,-510 993.17,-510 993.17,-510 1277.08,-510 1277.08,-510 1281.17,-510 1285.25,-514.08 1285.25,-518.17 1285.25,-518.17 1285.25,-526.33 1285.25,-526.33 1285.25,-530.42 1281.17,-534.5 1277.08,-534.5"/>
<text text-anchor="middle" x="1135.12" y="-517.2" font-family="Arial" font-size="14.00" fill="#cfffac">approvalBox/docInfo/FeViewRestriction.scss</text>
</g>
<!-- approvalBox/docInfo/FeViewRestriction.js&#45;&gt;approvalBox/docInfo/FeViewRestriction.scss -->
<g id="edge73" class="edge">
<title>approvalBox/docInfo/FeViewRestriction.js&#45;&gt;approvalBox/docInfo/FeViewRestriction.scss</title>
<path fill="none" stroke="#757575" d="M949.13,-522.25C957.12,-522.25 965.2,-522.25 973.26,-522.25"/>
<polygon fill="#757575" stroke="#757575" points="973.15,-525.75 983.15,-522.25 973.15,-518.75 973.15,-525.75"/>
</g>
<!-- approvalBox/flowInfo/FeParticipant.scss -->
<g id="node54" class="node">
<title>approvalBox/flowInfo/FeParticipant.scss</title>
<path fill="none" stroke="#cfffac" d="M1582.58,-1339.5C1582.58,-1339.5 1329.42,-1339.5 1329.42,-1339.5 1325.33,-1339.5 1321.25,-1335.42 1321.25,-1331.33 1321.25,-1331.33 1321.25,-1323.17 1321.25,-1323.17 1321.25,-1319.08 1325.33,-1315 1329.42,-1315 1329.42,-1315 1582.58,-1315 1582.58,-1315 1586.67,-1315 1590.75,-1319.08 1590.75,-1323.17 1590.75,-1323.17 1590.75,-1331.33 1590.75,-1331.33 1590.75,-1335.42 1586.67,-1339.5 1582.58,-1339.5"/>
<text text-anchor="middle" x="1456" y="-1322.2" font-family="Arial" font-size="14.00" fill="#cfffac">approvalBox/flowInfo/FeParticipant.scss</text>
</g>
<!-- approvalBox/flowInfo/FeParticipant.js&#45;&gt;approvalBox/flowInfo/FeParticipant.scss -->
<g id="edge75" class="edge">
<title>approvalBox/flowInfo/FeParticipant.js&#45;&gt;approvalBox/flowInfo/FeParticipant.scss</title>
<path fill="none" stroke="#757575" d="M1260.32,-1327.25C1276.45,-1327.25 1293.08,-1327.25 1309.52,-1327.25"/>
<polygon fill="#757575" stroke="#757575" points="1309.34,-1330.75 1319.34,-1327.25 1309.34,-1323.75 1309.34,-1330.75"/>
</g>
<!-- utils/hoxUtils.js&#45;&gt;utils/arrayUtils.js -->
<g id="edge84" class="edge">
<title>utils/hoxUtils.js&#45;&gt;utils/arrayUtils.js</title>
<path fill="none" stroke="#757575" d="M1189.5,-694.25C1243.43,-694.25 1327.01,-694.25 1385.96,-694.25"/>
<polygon fill="#757575" stroke="#757575" points="1385.89,-697.75 1395.89,-694.25 1385.89,-690.75 1385.89,-697.75"/>
</g>
<!-- approvalBox/recipientInfo/FeRecList.js&#45;&gt;utils/hoxUtils.js -->
<g id="edge81" class="edge">
<title>approvalBox/recipientInfo/FeRecList.js&#45;&gt;utils/hoxUtils.js</title>
<path fill="none" stroke="#757575" d="M514.01,-511.9C538.97,-538.71 601.59,-601.07 668.25,-629.25 784.23,-678.28 824.31,-649.72 949,-667.25 989.05,-672.88 1033.94,-679.42 1069.48,-684.66"/>
<polygon fill="#757575" stroke="#757575" points="1068.78,-688.09 1079.18,-686.09 1069.8,-681.16 1068.78,-688.09"/>
</g>
<!-- approvalBox/recipientInfo/FeRec.js -->
<g id="node55" class="node">
<title>approvalBox/recipientInfo/FeRec.js</title>
<path fill="none" stroke="#c6c5fe" d="M919.83,-319.5C919.83,-319.5 697.42,-319.5 697.42,-319.5 693.33,-319.5 689.25,-315.42 689.25,-311.33 689.25,-311.33 689.25,-303.17 689.25,-303.17 689.25,-299.08 693.33,-295 697.42,-295 697.42,-295 919.83,-295 919.83,-295 923.92,-295 928,-299.08 928,-303.17 928,-303.17 928,-311.33 928,-311.33 928,-315.42 923.92,-319.5 919.83,-319.5"/>
<text text-anchor="middle" x="808.62" y="-302.2" font-family="Arial" font-size="14.00" fill="#c6c5fe">approvalBox/recipientInfo/FeRec.js</text>
</g>
<!-- approvalBox/recipientInfo/FeRecList.js&#45;&gt;approvalBox/recipientInfo/FeRec.js -->
<g id="edge79" class="edge">
<title>approvalBox/recipientInfo/FeRecList.js&#45;&gt;approvalBox/recipientInfo/FeRec.js</title>
<path fill="none" stroke="#757575" d="M510.48,-486.79C531.56,-454.57 592.86,-368.26 668.25,-329.25 672.01,-327.31 675.89,-325.52 679.87,-323.89"/>
<polygon fill="#757575" stroke="#757575" points="681.01,-327.2 689.17,-320.44 678.58,-320.64 681.01,-327.2"/>
</g>
<!-- approvalBox/recipientInfo/FeRecList.scss -->
<g id="node57" class="node">
<title>approvalBox/recipientInfo/FeRecList.scss</title>
<path fill="none" stroke="#cfffac" d="M940.83,-362.5C940.83,-362.5 676.42,-362.5 676.42,-362.5 672.33,-362.5 668.25,-358.42 668.25,-354.33 668.25,-354.33 668.25,-346.17 668.25,-346.17 668.25,-342.08 672.33,-338 676.42,-338 676.42,-338 940.83,-338 940.83,-338 944.92,-338 949,-342.08 949,-346.17 949,-346.17 949,-354.33 949,-354.33 949,-358.42 944.92,-362.5 940.83,-362.5"/>
<text text-anchor="middle" x="808.62" y="-345.2" font-family="Arial" font-size="14.00" fill="#cfffac">approvalBox/recipientInfo/FeRecList.scss</text>
</g>
<!-- approvalBox/recipientInfo/FeRecList.js&#45;&gt;approvalBox/recipientInfo/FeRecList.scss -->
<g id="edge80" class="edge">
<title>approvalBox/recipientInfo/FeRecList.js&#45;&gt;approvalBox/recipientInfo/FeRecList.scss</title>
<path fill="none" stroke="#757575" d="M514.51,-486.61C539.93,-460.43 602.65,-400.4 668.25,-372.25 673.46,-370.01 678.87,-368 684.4,-366.19"/>
<polygon fill="#757575" stroke="#757575" points="685.14,-369.62 693.71,-363.39 683.13,-362.92 685.14,-369.62"/>
</g>
<!-- utils/arrayUtils.js&#45;&gt;utils/stringUtils.js -->
<g id="edge83" class="edge">
<title>utils/arrayUtils.js&#45;&gt;utils/stringUtils.js</title>
<path fill="none" stroke="#757575" d="M1473.46,-681.74C1512.87,-651.77 1612.89,-575.74 1660.25,-539.73"/>
<polygon fill="#757575" stroke="#757575" points="1662.21,-542.64 1668.05,-533.8 1657.97,-537.07 1662.21,-542.64"/>
</g>
<!-- approvalBox/recipientInfo/FeRec.js&#45;&gt;utils/hoxUtils.js -->
<g id="edge77" class="edge">
<title>approvalBox/recipientInfo/FeRec.js&#45;&gt;utils/hoxUtils.js</title>
<path fill="none" stroke="#757575" d="M928.38,-314.06C936.01,-317.96 943.01,-322.94 949,-329.25 1054.53,-440.42 878.91,-561.62 985,-672.25 1006.36,-694.53 1039.69,-700.95 1069.43,-701.39"/>
<polygon fill="#757575" stroke="#757575" points="1069.13,-704.9 1079.1,-701.31 1069.07,-697.9 1069.13,-704.9"/>
</g>
<!-- approvalBox/recipientInfo/FeRec.js&#45;&gt;utils/stringUtils.js -->
<g id="edge78" class="edge">
<title>approvalBox/recipientInfo/FeRec.js&#45;&gt;utils/stringUtils.js</title>
<path fill="none" stroke="#757575" d="M911.72,-320C1040.6,-336.28 1249.88,-363.41 1285.25,-372.25 1422.5,-406.54 1577.7,-471.93 1647.85,-503.01"/>
<polygon fill="#757575" stroke="#757575" points="1646.43,-506.21 1656.98,-507.08 1649.27,-499.81 1646.43,-506.21"/>
</g>
<!-- approvalBox/recipientInfo/FeRec.scss -->
<g id="node56" class="node">
<title>approvalBox/recipientInfo/FeRec.scss</title>
<path fill="none" stroke="#cfffac" d="M1256.08,-319.5C1256.08,-319.5 1014.17,-319.5 1014.17,-319.5 1010.08,-319.5 1006,-315.42 1006,-311.33 1006,-311.33 1006,-303.17 1006,-303.17 1006,-299.08 1010.08,-295 1014.17,-295 1014.17,-295 1256.08,-295 1256.08,-295 1260.17,-295 1264.25,-299.08 1264.25,-303.17 1264.25,-303.17 1264.25,-311.33 1264.25,-311.33 1264.25,-315.42 1260.17,-319.5 1256.08,-319.5"/>
<text text-anchor="middle" x="1135.12" y="-302.2" font-family="Arial" font-size="14.00" fill="#cfffac">approvalBox/recipientInfo/FeRec.scss</text>
</g>
<!-- approvalBox/recipientInfo/FeRec.js&#45;&gt;approvalBox/recipientInfo/FeRec.scss -->
<g id="edge76" class="edge">
<title>approvalBox/recipientInfo/FeRec.js&#45;&gt;approvalBox/recipientInfo/FeRec.scss</title>
<path fill="none" stroke="#757575" d="M928.15,-307.25C949.58,-307.25 972.11,-307.25 994.09,-307.25"/>
<polygon fill="#757575" stroke="#757575" points="994.01,-310.75 1004.01,-307.25 994.01,-303.75 994.01,-310.75"/>
</g>
</g>
</svg>
