<?xml version="1.0" encoding="UTF-8" standalone="no"?>
<!DOCTYPE svg PUBLIC "-//W3C//DTD SVG 1.1//EN"
 "http://www.w3.org/Graphics/SVG/1.1/DTD/svg11.dtd">
<!-- Generated by graphviz version 9.0.0 (20230911.1827)
 -->
<!-- Title: G Pages: 1 -->
<svg width="798pt" height="363pt"
 viewBox="0.00 0.00 798.20 362.70" xmlns="http://www.w3.org/2000/svg" xmlns:xlink="http://www.w3.org/1999/xlink">
<g id="graph0" class="graph" transform="scale(1 1) rotate(0) translate(21.6 341.1)">
<title>G</title>
<polygon fill="#111111" stroke="none" points="-21.6,21.6 -21.6,-341.1 776.6,-341.1 776.6,21.6 -21.6,21.6"/>
<!-- css/button.scss -->
<g id="node1" class="node">
<title>css/button.scss</title>
<path fill="none" stroke="#cfffac" d="M414.46,-319.5C414.46,-319.5 315.79,-319.5 315.79,-319.5 311.71,-319.5 307.62,-315.42 307.62,-311.33 307.62,-311.33 307.62,-303.17 307.62,-303.17 307.62,-299.08 311.71,-295 315.79,-295 315.79,-295 414.46,-295 414.46,-295 418.54,-295 422.62,-299.08 422.62,-303.17 422.62,-303.17 422.62,-311.33 422.62,-311.33 422.62,-315.42 418.54,-319.5 414.46,-319.5"/>
<text text-anchor="middle" x="365.12" y="-302.2" font-family="Arial" font-size="14.00" fill="#cfffac">css/button.scss</text>
</g>
<!-- css/initiate.scss -->
<g id="node2" class="node">
<title>css/initiate.scss</title>
<path fill="none" stroke="#cfffac" d="M414.83,-276.5C414.83,-276.5 315.42,-276.5 315.42,-276.5 311.33,-276.5 307.25,-272.42 307.25,-268.33 307.25,-268.33 307.25,-260.17 307.25,-260.17 307.25,-256.08 311.33,-252 315.42,-252 315.42,-252 414.83,-252 414.83,-252 418.92,-252 423,-256.08 423,-260.17 423,-260.17 423,-268.33 423,-268.33 423,-272.42 418.92,-276.5 414.83,-276.5"/>
<text text-anchor="middle" x="365.12" y="-259.2" font-family="Arial" font-size="14.00" fill="#cfffac">css/initiate.scss</text>
</g>
<!-- css/modal.scss -->
<g id="node3" class="node">
<title>css/modal.scss</title>
<path fill="none" stroke="#cfffac" d="M414.46,-233.5C414.46,-233.5 315.79,-233.5 315.79,-233.5 311.71,-233.5 307.62,-229.42 307.62,-225.33 307.62,-225.33 307.62,-217.17 307.62,-217.17 307.62,-213.08 311.71,-209 315.79,-209 315.79,-209 414.46,-209 414.46,-209 418.54,-209 422.62,-213.08 422.62,-217.17 422.62,-217.17 422.62,-225.33 422.62,-225.33 422.62,-229.42 418.54,-233.5 414.46,-233.5"/>
<text text-anchor="middle" x="365.12" y="-216.2" font-family="Arial" font-size="14.00" fill="#cfffac">css/modal.scss</text>
</g>
<!-- css/root.scss -->
<g id="node4" class="node">
<title>css/root.scss</title>
<path fill="none" stroke="#cfffac" d="M407.33,-190.5C407.33,-190.5 322.92,-190.5 322.92,-190.5 318.83,-190.5 314.75,-186.42 314.75,-182.33 314.75,-182.33 314.75,-174.17 314.75,-174.17 314.75,-170.08 318.83,-166 322.92,-166 322.92,-166 407.33,-166 407.33,-166 411.42,-166 415.5,-170.08 415.5,-174.17 415.5,-174.17 415.5,-182.33 415.5,-182.33 415.5,-186.42 411.42,-190.5 407.33,-190.5"/>
<text text-anchor="middle" x="365.12" y="-173.2" font-family="Arial" font-size="14.00" fill="#cfffac">css/root.scss</text>
</g>
<!-- main.js -->
<g id="node5" class="node">
<title>main.js</title>
<path fill="none" stroke="#c6c5fe" d="M52.08,-127.5C52.08,-127.5 8.17,-127.5 8.17,-127.5 4.08,-127.5 0,-123.42 0,-119.33 0,-119.33 0,-111.17 0,-111.17 0,-107.08 4.08,-103 8.17,-103 8.17,-103 52.08,-103 52.08,-103 56.17,-103 60.25,-107.08 60.25,-111.17 60.25,-111.17 60.25,-119.33 60.25,-119.33 60.25,-123.42 56.17,-127.5 52.08,-127.5"/>
<text text-anchor="middle" x="30.12" y="-110.2" font-family="Arial" font-size="14.00" fill="#c6c5fe">main.js</text>
</g>
<!-- main.scss -->
<g id="node6" class="node">
<title>main.scss</title>
<path fill="none" stroke="#c6c5fe" d="M214.71,-233.5C214.71,-233.5 151.29,-233.5 151.29,-233.5 147.21,-233.5 143.12,-229.42 143.12,-225.33 143.12,-225.33 143.12,-217.17 143.12,-217.17 143.12,-213.08 147.21,-209 151.29,-209 151.29,-209 214.71,-209 214.71,-209 218.79,-209 222.88,-213.08 222.88,-217.17 222.88,-217.17 222.88,-225.33 222.88,-225.33 222.88,-229.42 218.79,-233.5 214.71,-233.5"/>
<text text-anchor="middle" x="183" y="-216.2" font-family="Arial" font-size="14.00" fill="#c6c5fe">main.scss</text>
</g>
<!-- main.js&#45;&gt;main.scss -->
<g id="edge1" class="edge">
<title>main.js&#45;&gt;main.scss</title>
<path fill="none" stroke="#757575" d="M49.02,-127.83C75.23,-146.23 124.23,-180.66 154.87,-202.19"/>
<polygon fill="#757575" stroke="#757575" points="152.69,-204.94 162.89,-207.82 156.71,-199.21 152.69,-204.94"/>
</g>
<!-- main/FeEditor.js -->
<g id="node7" class="node">
<title>main/FeEditor.js</title>
<path fill="none" stroke="#c6c5fe" d="M416.33,-147.5C416.33,-147.5 313.92,-147.5 313.92,-147.5 309.83,-147.5 305.75,-143.42 305.75,-139.33 305.75,-139.33 305.75,-131.17 305.75,-131.17 305.75,-127.08 309.83,-123 313.92,-123 313.92,-123 416.33,-123 416.33,-123 420.42,-123 424.5,-127.08 424.5,-131.17 424.5,-131.17 424.5,-139.33 424.5,-139.33 424.5,-143.42 420.42,-147.5 416.33,-147.5"/>
<text text-anchor="middle" x="365.12" y="-130.2" font-family="Arial" font-size="14.00" fill="#c6c5fe">main/FeEditor.js</text>
</g>
<!-- main.js&#45;&gt;main/FeEditor.js -->
<g id="edge2" class="edge">
<title>main.js&#45;&gt;main/FeEditor.js</title>
<path fill="none" stroke="#757575" d="M60.68,-117.02C112.73,-120.15 222.07,-126.72 294.29,-131.06"/>
<polygon fill="#757575" stroke="#757575" points="293.85,-134.54 304.04,-131.64 294.27,-127.55 293.85,-134.54"/>
</g>
<!-- main/reflectHoxInBody.js -->
<g id="node8" class="node">
<title>main/reflectHoxInBody.js</title>
<path fill="none" stroke="#c6c5fe" d="M261.58,-107.5C261.58,-107.5 104.42,-107.5 104.42,-107.5 100.33,-107.5 96.25,-103.42 96.25,-99.33 96.25,-99.33 96.25,-91.17 96.25,-91.17 96.25,-87.08 100.33,-83 104.42,-83 104.42,-83 261.58,-83 261.58,-83 265.67,-83 269.75,-87.08 269.75,-91.17 269.75,-91.17 269.75,-99.33 269.75,-99.33 269.75,-103.42 265.67,-107.5 261.58,-107.5"/>
<text text-anchor="middle" x="183" y="-90.2" font-family="Arial" font-size="14.00" fill="#c6c5fe">main/reflectHoxInBody.js</text>
</g>
<!-- main.js&#45;&gt;main/reflectHoxInBody.js -->
<g id="edge3" class="edge">
<title>main.js&#45;&gt;main/reflectHoxInBody.js</title>
<path fill="none" stroke="#757575" d="M60.57,-111.35C67.87,-110.38 76.09,-109.29 84.74,-108.14"/>
<polygon fill="#757575" stroke="#757575" points="84.91,-111.65 94.37,-106.87 83.99,-104.71 84.91,-111.65"/>
</g>
<!-- utils/hoxUtils.js -->
<g id="node9" class="node">
<title>utils/hoxUtils.js</title>
<path fill="none" stroke="#c6c5fe" d="M411.08,-24.5C411.08,-24.5 319.17,-24.5 319.17,-24.5 315.08,-24.5 311,-20.42 311,-16.33 311,-16.33 311,-8.17 311,-8.17 311,-4.08 315.08,0 319.17,0 319.17,0 411.08,0 411.08,0 415.17,0 419.25,-4.08 419.25,-8.17 419.25,-8.17 419.25,-16.33 419.25,-16.33 419.25,-20.42 415.17,-24.5 411.08,-24.5"/>
<text text-anchor="middle" x="365.12" y="-7.2" font-family="Arial" font-size="14.00" fill="#c6c5fe">utils/hoxUtils.js</text>
</g>
<!-- main.js&#45;&gt;utils/hoxUtils.js -->
<g id="edge4" class="edge">
<title>main.js&#45;&gt;utils/hoxUtils.js</title>
<path fill="none" stroke="#757575" d="M47.68,-102.63C60.36,-93.53 78.61,-81.6 96.25,-74.25 162.83,-46.52 244.13,-29.92 299.58,-20.98"/>
<polygon fill="#757575" stroke="#757575" points="299.83,-24.49 309.17,-19.48 298.74,-17.57 299.83,-24.49"/>
</g>
<!-- main.scss&#45;&gt;css/button.scss -->
<g id="edge5" class="edge">
<title>main.scss&#45;&gt;css/button.scss</title>
<path fill="none" stroke="#757575" d="M206.03,-233.89C230.11,-247.45 270.03,-269.2 305.75,-285.25 309.58,-286.97 313.59,-288.68 317.64,-290.33"/>
<polygon fill="#757575" stroke="#757575" points="316.35,-293.58 326.93,-294.01 318.92,-287.07 316.35,-293.58"/>
</g>
<!-- main.scss&#45;&gt;css/initiate.scss -->
<g id="edge6" class="edge">
<title>main.scss&#45;&gt;css/initiate.scss</title>
<path fill="none" stroke="#757575" d="M223.08,-230.58C245.44,-235.92 274.04,-242.74 299.63,-248.85"/>
<polygon fill="#757575" stroke="#757575" points="298.76,-252.24 309.29,-251.16 300.38,-245.43 298.76,-252.24"/>
</g>
<!-- main.scss&#45;&gt;css/modal.scss -->
<g id="edge7" class="edge">
<title>main.scss&#45;&gt;css/modal.scss</title>
<path fill="none" stroke="#757575" d="M223.08,-221.25C244.34,-221.25 271.25,-221.25 295.85,-221.25"/>
<polygon fill="#757575" stroke="#757575" points="295.82,-224.75 305.82,-221.25 295.82,-217.75 295.82,-224.75"/>
</g>
<!-- main.scss&#45;&gt;css/root.scss -->
<g id="edge8" class="edge">
<title>main.scss&#45;&gt;css/root.scss</title>
<path fill="none" stroke="#757575" d="M223.08,-211.92C246.53,-206.32 276.86,-199.08 303.37,-192.75"/>
<polygon fill="#757575" stroke="#757575" points="304.09,-196.18 313,-190.45 302.46,-189.37 304.09,-196.18"/>
</g>
<!-- main/CellNames.js -->
<g id="node10" class="node">
<title>main/CellNames.js</title>
<path fill="none" stroke="#cfffac" d="M588.33,-107.5C588.33,-107.5 470.92,-107.5 470.92,-107.5 466.83,-107.5 462.75,-103.42 462.75,-99.33 462.75,-99.33 462.75,-91.17 462.75,-91.17 462.75,-87.08 466.83,-83 470.92,-83 470.92,-83 588.33,-83 588.33,-83 592.42,-83 596.5,-87.08 596.5,-91.17 596.5,-91.17 596.5,-99.33 596.5,-99.33 596.5,-103.42 592.42,-107.5 588.33,-107.5"/>
<text text-anchor="middle" x="529.62" y="-90.2" font-family="Arial" font-size="14.00" fill="#cfffac">main/CellNames.js</text>
</g>
<!-- main/FeEditor.js&#45;&gt;main/CellNames.js -->
<g id="edge9" class="edge">
<title>main/FeEditor.js&#45;&gt;main/CellNames.js</title>
<path fill="none" stroke="#757575" d="M417.54,-122.59C432.95,-118.8 450.03,-114.6 466.07,-110.65"/>
<polygon fill="#757575" stroke="#757575" points="466.64,-114.11 475.52,-108.32 464.97,-107.31 466.64,-114.11"/>
</g>
<!-- main/FeEditor.scss -->
<g id="node11" class="node">
<title>main/FeEditor.scss</title>
<path fill="none" stroke="#cfffac" d="M590.58,-150.5C590.58,-150.5 468.67,-150.5 468.67,-150.5 464.58,-150.5 460.5,-146.42 460.5,-142.33 460.5,-142.33 460.5,-134.17 460.5,-134.17 460.5,-130.08 464.58,-126 468.67,-126 468.67,-126 590.58,-126 590.58,-126 594.67,-126 598.75,-130.08 598.75,-134.17 598.75,-134.17 598.75,-142.33 598.75,-142.33 598.75,-146.42 594.67,-150.5 590.58,-150.5"/>
<text text-anchor="middle" x="529.62" y="-133.2" font-family="Arial" font-size="14.00" fill="#cfffac">main/FeEditor.scss</text>
</g>
<!-- main/FeEditor.js&#45;&gt;main/FeEditor.scss -->
<g id="edge10" class="edge">
<title>main/FeEditor.js&#45;&gt;main/FeEditor.scss</title>
<path fill="none" stroke="#757575" d="M424.79,-136.33C432.58,-136.48 440.66,-136.63 448.73,-136.78"/>
<polygon fill="#757575" stroke="#757575" points="448.52,-140.27 458.58,-136.96 448.65,-133.27 448.52,-140.27"/>
</g>
<!-- main/reflectHoxInBody.js&#45;&gt;main/FeEditor.js -->
<g id="edge12" class="edge">
<title>main/reflectHoxInBody.js&#45;&gt;main/FeEditor.js</title>
<path fill="none" stroke="#757575" d="M240.99,-107.91C258.4,-111.77 277.73,-116.06 295.81,-120.08"/>
<polygon fill="#757575" stroke="#757575" points="294.89,-123.46 305.41,-122.21 296.4,-116.63 294.89,-123.46"/>
</g>
<!-- main/reflectHoxInBody.js&#45;&gt;utils/hoxUtils.js -->
<g id="edge14" class="edge">
<title>main/reflectHoxInBody.js&#45;&gt;utils/hoxUtils.js</title>
<path fill="none" stroke="#757575" d="M207.45,-82.59C231.71,-69.7 270.88,-49.51 305.75,-34.25 309.77,-32.49 313.97,-30.74 318.2,-29.04"/>
<polygon fill="#757575" stroke="#757575" points="319.25,-32.39 327.29,-25.48 316.7,-25.87 319.25,-32.39"/>
</g>
<!-- main/reflectHoxInBody.js&#45;&gt;main/CellNames.js -->
<g id="edge11" class="edge">
<title>main/reflectHoxInBody.js&#45;&gt;main/CellNames.js</title>
<path fill="none" stroke="#757575" d="M270.07,-95.25C325.63,-95.25 397.31,-95.25 451.1,-95.25"/>
<polygon fill="#757575" stroke="#757575" points="450.78,-98.75 460.78,-95.25 450.78,-91.75 450.78,-98.75"/>
</g>
<!-- utils/dateUtils.js -->
<g id="node12" class="node">
<title>utils/dateUtils.js</title>
<path fill="none" stroke="#cfffac" d="M413.71,-67.5C413.71,-67.5 316.54,-67.5 316.54,-67.5 312.46,-67.5 308.38,-63.42 308.38,-59.33 308.38,-59.33 308.38,-51.17 308.38,-51.17 308.38,-47.08 312.46,-43 316.54,-43 316.54,-43 413.71,-43 413.71,-43 417.79,-43 421.88,-47.08 421.88,-51.17 421.88,-51.17 421.88,-59.33 421.88,-59.33 421.88,-63.42 417.79,-67.5 413.71,-67.5"/>
<text text-anchor="middle" x="365.12" y="-50.2" font-family="Arial" font-size="14.00" fill="#cfffac">utils/dateUtils.js</text>
</g>
<!-- main/reflectHoxInBody.js&#45;&gt;utils/dateUtils.js -->
<g id="edge13" class="edge">
<title>main/reflectHoxInBody.js&#45;&gt;utils/dateUtils.js</title>
<path fill="none" stroke="#757575" d="M240.99,-82.59C258.83,-78.63 278.68,-74.23 297.14,-70.13"/>
<polygon fill="#757575" stroke="#757575" points="297.64,-73.6 306.64,-68.02 296.12,-66.77 297.64,-73.6"/>
</g>
<!-- utils/arrayUtils.js -->
<g id="node13" class="node">
<title>utils/arrayUtils.js</title>
<path fill="none" stroke="#c6c5fe" d="M579.71,-24.5C579.71,-24.5 479.54,-24.5 479.54,-24.5 475.46,-24.5 471.38,-20.42 471.38,-16.33 471.38,-16.33 471.38,-8.17 471.38,-8.17 471.38,-4.08 475.46,0 479.54,0 479.54,0 579.71,0 579.71,0 583.79,0 587.88,-4.08 587.88,-8.17 587.88,-8.17 587.88,-16.33 587.88,-16.33 587.88,-20.42 583.79,-24.5 579.71,-24.5"/>
<text text-anchor="middle" x="529.62" y="-7.2" font-family="Arial" font-size="14.00" fill="#c6c5fe">utils/arrayUtils.js</text>
</g>
<!-- utils/hoxUtils.js&#45;&gt;utils/arrayUtils.js -->
<g id="edge16" class="edge">
<title>utils/hoxUtils.js&#45;&gt;utils/arrayUtils.js</title>
<path fill="none" stroke="#757575" d="M419.33,-12.25C432.28,-12.25 446.3,-12.25 459.86,-12.25"/>
<polygon fill="#757575" stroke="#757575" points="459.58,-15.75 469.58,-12.25 459.58,-8.75 459.58,-15.75"/>
</g>
<!-- utils/stringUtils.js -->
<g id="node14" class="node">
<title>utils/stringUtils.js</title>
<path fill="none" stroke="#cfffac" d="M746.83,-24.5C746.83,-24.5 642.92,-24.5 642.92,-24.5 638.83,-24.5 634.75,-20.42 634.75,-16.33 634.75,-16.33 634.75,-8.17 634.75,-8.17 634.75,-4.08 638.83,0 642.92,0 642.92,0 746.83,0 746.83,0 750.92,0 755,-4.08 755,-8.17 755,-8.17 755,-16.33 755,-16.33 755,-20.42 750.92,-24.5 746.83,-24.5"/>
<text text-anchor="middle" x="694.88" y="-7.2" font-family="Arial" font-size="14.00" fill="#cfffac">utils/stringUtils.js</text>
</g>
<!-- utils/arrayUtils.js&#45;&gt;utils/stringUtils.js -->
<g id="edge15" class="edge">
<title>utils/arrayUtils.js&#45;&gt;utils/stringUtils.js</title>
<path fill="none" stroke="#757575" d="M588.18,-12.25C599.4,-12.25 611.29,-12.25 622.89,-12.25"/>
<polygon fill="#757575" stroke="#757575" points="622.84,-15.75 632.84,-12.25 622.84,-8.75 622.84,-15.75"/>
</g>
</g>
</svg>
